<svg width="50" height="50" xmlns="http://www.w3.org/2000/svg" zoomAndPan="magnify" viewBox="0 0 810 810" preserveAspectRatio="xMidYMid meet" xmlns:v="https://vecta.io/nano"><defs><clipPath id="A"><path d="M6.418 6.418h797.25v797.25H6.418zm0 0" clip-rule="nonzero"/></clipPath><clipPath id="B"><path d="M6.418 118H692v685.668H6.418zm0 0" clip-rule="nonzero"/></clipPath></defs><g clip-path="url(#A)"><path fill="#5c2d91" d="M803.668 405.043a398.43 398.43 0 0 1-.48 19.563 397.33 397.33 0 0 1-1.437 19.512 400.29 400.29 0 0 1-2.395 19.418c-.957 6.453-2.074 12.879-3.344 19.277a398.44 398.44 0 0 1-4.289 19.09c-1.586 6.328-3.324 12.613-5.219 18.855a395.86 395.86 0 0 1-6.137 18.578 395.36 395.36 0 0 1-7.043 18.254c-2.496 6.027-5.137 11.992-7.926 17.891a399.07 399.07 0 0 1-8.797 17.473c-3.078 5.754-6.293 11.43-9.645 17.027a399.17 399.17 0 0 1-10.469 16.527c-3.625 5.426-7.379 10.758-11.266 15.996s-7.898 10.383-12.035 15.426a404.39 404.39 0 0 1-12.781 14.816c-4.383 4.832-8.879 9.555-13.492 14.168s-9.336 9.109-14.168 13.492a404.39 404.39 0 0 1-14.816 12.781c-5.043 4.137-10.184 8.148-15.426 12.035s-10.57 7.641-15.996 11.266a399.17 399.17 0 0 1-16.527 10.469c-5.598 3.352-11.273 6.566-17.027 9.645a397.03 397.03 0 0 1-17.477 8.797 396.71 396.71 0 0 1-17.887 7.926 395.36 395.36 0 0 1-18.254 7.043 395.86 395.86 0 0 1-18.578 6.137c-6.242 1.895-12.527 3.633-18.855 5.219a398.44 398.44 0 0 1-19.09 4.289c-6.398 1.27-12.824 2.387-19.277 3.344a400.29 400.29 0 0 1-19.418 2.395 397.33 397.33 0 0 1-19.512 1.438 398.43 398.43 0 0 1-19.562.48 398.27 398.27 0 0 1-19.559-.48 397.33 397.33 0 0 1-19.512-1.437 400.29 400.29 0 0 1-19.418-2.395c-6.453-.957-12.879-2.074-19.277-3.344a398.44 398.44 0 0 1-19.09-4.289c-6.328-1.586-12.613-3.324-18.859-5.219a398.89 398.89 0 0 1-18.578-6.137c-6.141-2.199-12.227-4.543-18.254-7.043a398.67 398.67 0 0 1-17.887-7.926 399.21 399.21 0 0 1-17.477-8.797 405.24 405.24 0 0 1-17.023-9.645 399.17 399.17 0 0 1-16.527-10.469c-5.426-3.625-10.758-7.379-16-11.266a402.14 402.14 0 0 1-15.422-12.035 404.39 404.39 0 0 1-14.816-12.781c-4.832-4.383-9.559-8.879-14.168-13.492s-9.113-9.336-13.492-14.168-8.641-9.773-12.781-14.816-8.148-10.184-12.035-15.426a392.5 392.5 0 0 1-11.266-15.996c-3.625-5.422-7.117-10.934-10.469-16.527s-6.57-11.273-9.645-17.027a397.03 397.03 0 0 1-8.797-17.477 396.77 396.77 0 0 1-7.93-17.887 395.3 395.3 0 0 1-7.039-18.254c-2.199-6.141-4.246-12.332-6.137-18.578s-3.637-12.527-5.219-18.855a398.44 398.44 0 0 1-4.289-19.09c-1.273-6.398-2.387-12.824-3.344-19.277s-1.758-12.926-2.395-19.418-1.121-12.996-1.441-19.512a398.43 398.43 0 0 1-.48-19.562 398.27 398.27 0 0 1 .48-19.559c.32-6.516.801-13.02 1.441-19.512s1.438-12.965 2.395-19.418 2.07-12.879 3.344-19.277a398.44 398.44 0 0 1 4.289-19.09 395.15 395.15 0 0 1 5.219-18.859 394.32 394.32 0 0 1 6.137-18.578 397.03 397.03 0 0 1 7.039-18.254c2.496-6.027 5.141-11.988 7.93-17.887a399.21 399.21 0 0 1 8.797-17.477c3.074-5.754 6.289-11.426 9.645-17.023s6.844-11.105 10.469-16.527 7.379-10.758 11.266-16a402.14 402.14 0 0 1 12.035-15.422c4.141-5.043 8.398-9.98 12.781-14.816a394.74 394.74 0 0 1 27.66-27.66c4.836-4.383 9.773-8.641 14.816-12.781a402.14 402.14 0 0 1 15.422-12.035c5.242-3.887 10.574-7.645 16-11.266s10.934-7.117 16.527-10.469 11.27-6.57 17.023-9.645a399.21 399.21 0 0 1 17.477-8.797c5.898-2.789 11.859-5.434 17.887-7.93a397.03 397.03 0 0 1 18.254-7.039 394.32 394.32 0 0 1 18.578-6.137 395.15 395.15 0 0 1 18.859-5.219 398.44 398.44 0 0 1 19.09-4.289c6.398-1.273 12.824-2.387 19.277-3.344s12.926-1.758 19.418-2.395 12.996-1.121 19.512-1.441a398.27 398.27 0 0 1 19.559-.48 398.43 398.43 0 0 1 19.563.48c6.516.32 13.02.801 19.512 1.441s12.965 1.438 19.418 2.395 12.879 2.07 19.277 3.344a398.44 398.44 0 0 1 19.09 4.289c6.328 1.582 12.613 3.324 18.855 5.219s12.438 3.938 18.578 6.137a395.3 395.3 0 0 1 18.254 7.039 398.88 398.88 0 0 1 17.891 7.93 399.07 399.07 0 0 1 17.473 8.797c5.754 3.074 11.43 6.289 17.027 9.645s11.105 6.844 16.527 10.469a392.5 392.5 0 0 1 15.996 11.266c5.242 3.887 10.383 7.898 15.426 12.035s9.98 8.398 14.816 12.781 9.555 8.879 14.168 13.492 9.109 9.336 13.492 14.168a404.39 404.39 0 0 1 12.781 14.816 402.14 402.14 0 0 1 12.035 15.422c3.887 5.242 7.641 10.574 11.266 16a399.17 399.17 0 0 1 10.469 16.527 405.24 405.24 0 0 1 9.645 17.023 399.21 399.21 0 0 1 8.797 17.477 398.67 398.67 0 0 1 7.926 17.887c2.5 6.027 4.844 12.113 7.043 18.254a398.89 398.89 0 0 1 6.137 18.578c1.895 6.246 3.633 12.531 5.219 18.859a398.44 398.44 0 0 1 4.289 19.09c1.27 6.398 2.387 12.824 3.344 19.277a400.29 400.29 0 0 1 2.395 19.418 397.33 397.33 0 0 1 1.438 19.512 398.27 398.27 0 0 1 .48 19.559zm0 0"/></g><g clip-path="url(#B)"><path fill="#fff" d="M128.746 118.531a400.19 400.19 0 0 0-14.793 13.875c-4.812 4.75-9.504 9.621-14.07 14.609s-9 10.09-13.305 15.305-8.477 10.535-12.512 15.961-7.934 10.953-11.687 16.578-7.359 11.344-10.824 17.152a394.16 394.16 0 0 0-9.937 17.68c-3.164 5.977-6.176 12.031-9.027 18.16a399.71 399.71 0 0 0-8.094 18.598 400.61 400.61 0 0 0-7.137 18.988c-2.215 6.387-4.27 12.828-6.16 19.32s-3.613 13.031-5.168 19.613-2.945 13.199-4.168 19.852-2.27 13.328-3.148 20.035-1.59 13.426-2.129 20.168-.902 13.492-1.098 20.254a398.92 398.92 0 0 0-.066 20.281c.148 6.762.469 13.512.965 20.258a396.88 396.88 0 0 0 1.992 20.184c.836 6.711 1.844 13.395 3.02 20.055a400.55 400.55 0 0 0 4.031 19.879c1.516 6.59 3.195 13.137 5.039 19.645a399.27 399.27 0 0 0 6.035 19.363 397.75 397.75 0 0 0 7.008 19.031 393.83 393.83 0 0 0 7.969 18.652 396.46 396.46 0 0 0 8.906 18.223c3.125 5.996 6.398 11.91 9.82 17.742a396.73 396.73 0 0 0 10.715 17.223c3.715 5.652 7.574 11.203 11.574 16.656a396.96 396.96 0 0 0 12.402 16.043c4.273 5.246 8.676 10.375 13.207 15.395a400.43 400.43 0 0 0 28.676 28.676c5.016 4.531 10.148 8.934 15.391 13.203s10.594 8.406 16.047 12.406 11.004 7.859 16.656 11.574 11.391 7.289 17.219 10.711 11.75 6.699 17.746 9.824 12.074 6.09 18.223 8.906a403.8 403.8 0 0 0 18.648 7.969c6.285 2.496 12.629 4.832 19.035 7.008a393.62 393.62 0 0 0 19.363 6.031c6.504 1.848 13.055 3.527 19.645 5.039s13.219 2.859 19.875 4.035 13.348 2.184 20.059 3.02a396.88 396.88 0 0 0 20.184 1.992c6.742.492 13.496.816 20.258.965s13.523.125 20.281-.066a398.39 398.39 0 0 0 20.254-1.102c6.738-.535 13.465-1.246 20.168-2.125s13.383-1.93 20.035-3.152a399.64 399.64 0 0 0 19.852-4.164c6.578-1.559 13.117-3.281 19.609-5.172s12.938-3.941 19.324-6.16a394.62 394.62 0 0 0 18.984-7.133c6.27-2.539 12.469-5.238 18.598-8.094a396.56 396.56 0 0 0 18.164-9.027c5.977-3.164 11.871-6.477 17.68-9.937s11.523-7.074 17.148-10.828a397.89 397.89 0 0 0 16.578-11.684c5.43-4.035 10.75-8.207 15.965-12.512s10.316-8.742 15.305-13.309 9.859-9.254 14.609-14.066 9.375-9.746 13.871-14.797zm0 0" fill-opacity=".1"/></g><path d="M98.602 520.273a17.09 17.09 0 0 1-3.457-.305 16.7 16.7 0 0 1-3.32-1.008 16.79 16.79 0 0 1-3.043-1.664 16.7 16.7 0 0 1-2.637-2.258 16.96 16.96 0 0 1-3.824-5.707 17.08 17.08 0 0 1-1.285-6.75 17.27 17.27 0 0 1 1.305-6.742c.887-2.16 2.152-4.062 3.805-5.715a16.91 16.91 0 0 1 2.621-2.297 16.68 16.68 0 0 1 3.039-1.703 16.85 16.85 0 0 1 3.328-1.035 16.67 16.67 0 0 1 3.469-.32 16.89 16.89 0 0 1 3.461.348c1.145.23 2.25.578 3.324 1.039a17.15 17.15 0 0 1 3.039 1.695 17.22 17.22 0 0 1 2.633 2.273c1.68 1.637 2.973 3.535 3.883 5.699a17.15 17.15 0 0 1 1.348 6.758 16.79 16.79 0 0 1-.32 3.453c-.223 1.141-.559 2.246-1.008 3.316s-1.004 2.086-1.66 3.043a17.27 17.27 0 0 1-2.242 2.645c-.809.836-1.691 1.578-2.648 2.234a17.01 17.01 0 0 1-3.043 1.656 17.22 17.22 0 0 1-3.316 1.016 17.28 17.28 0 0 1-3.449.328zm247.519-3.117h-32.637L196.762 336.031a75.36 75.36 0 0 1-7.223-14.199h-.996a232.9 232.9 0 0 1 1.242 31.141v164.184h-26.531v-227.09h34.504l113.609 177.887c4.734 7.391 7.809 12.457 9.219 15.195h.621a240.24 240.24 0 0 1-1.617-33.383v-159.7h26.531zm179.633 0H405.043v-227.09h115.105v24.043h-87.949v75.488h81.969v23.918h-81.969v78.727h93.68zm178.258-203.047h-66.02v203.047h-26.535V314.109h-65.273v-24.043h157.828zm0 0" fill="#fff"/></svg>