<svg width="50" height="50" xmlns="http://www.w3.org/2000/svg" zoomAndPan="magnify" viewBox="0 0 810 810" preserveAspectRatio="xMidYMid meet" fill="#a427c4" xmlns:v="https://vecta.io/nano"><path d="M479.629 267.41c-5.762.613-11.766 1.59-13.48 2.328-1.715.613-5.27 1.469-7.84 1.961-2.699.488-6.25 1.59-7.965 2.449-1.719.98-3.922 1.715-4.656 1.715-2.207 0-20.586 9.68-29.164 15.316-9.805 6.496-24.875 21.078-33.086 31.859-12.375 16.543-22.301 38.844-26.711 60.531-3.062 14.707-1.348 58.449 2.695 68.129.488 1.348 2.207 6.25 3.797 11.031 2.574 7.84 12.621 28.551 14.582 30.02.367.367 2.453 3.063 4.414 6.125 9.313 13.848 34.184 35.168 49.625 42.52 11.52 5.395 17.031 7.723 18.871 7.723.98 0 2.082.488 2.449 1.102.492.613 3.063 1.469 6.004 1.961 2.82.488 6.004 1.348 6.984 1.836 6.617 3.434 51.832 3.555 62.984.125 2.082-.734 7.719-2.328 12.375-3.801 4.777-1.469 10.293-3.43 12.5-4.41 2.082-.98 4.164-1.715 4.531-1.715 1.473 0 23.652-13.969 28.797-18.137 10.172-8.207 11.152-9.187 11.152-11.641 0-2.941-9.559-12.129-11.52-11.027-.734.492-4.535 3.555-8.457 6.738a126.1 126.1 0 0 1-60.285 27.449c-13.969 2.328-49.75.246-53.914-3.187-.613-.488-3.187-1.348-5.516-1.836s-5.023-1.348-6.125-1.961c-.98-.492-5.637-2.695-10.172-4.902-19.238-8.945-41.172-29.406-51.832-48.277a214.72 214.72 0 0 1-4.043-7.965c-1.594-3.062-3.187-6.371-3.676-7.352-1.348-2.574-5.637-17.523-7.598-26.348-2.207-9.68-2.207-39.453 0-49.012 1.961-8.945 6.25-23.773 7.598-26.344l3.551-7.355c7.844-16.051 25.367-36.391 39.824-45.949 10.051-6.617 25.855-14.582 32.473-16.418 37.742-10.293 65.801-7.844 98.641 8.699 7.477 3.676 22.793 14.703 26.957 19.359 1.227 1.348 2.574 2.453 3.063 2.453 2.086 0 11.031-9.684 11.031-11.887 0-2.695-3.187-5.637-16.668-15.684-11.883-8.945-27.078-16.668-40.926-20.711-3.676-1.223-8.332-2.57-10.414-3.184-4.781-1.473-27.324-3.676-34.801-3.555-3.062.121-10.293.734-16.051 1.227zM24.043 307.969c-1.102 1.102-1.469 23.402-1.469 93.004 0 82.344.246 91.531 1.961 92.266 2.574.98 86.141.98 91.043 0l3.922-.855-.367-7.477-.371-7.473-75.969-1.227v-67.395l33.082-.613 33.086-.609.367-6.375c.734-12.129 2.328-11.516-34.434-11.27l-32.102.242v-65.922l36.148-.613 36.145-.613.371-6.738c.367-5.27-.125-6.984-1.719-8.211-3.062-2.207-87.488-2.328-89.695-.121zm128.539 1.836c-1.594 3.188-1.715 179.883-.121 182.945 1.102 2.082 2.574 2.449 9.191 2.449 4.285 0 8.207-.488 8.574-1.223.371-.613.738-18.75.613-40.191l.613-40.805c.492-1.473 6.129-1.715 32.105-1.473 36.148.371 35.902.371 35.902-9.312 0-3.062-.492-6.371-.98-7.105-.734-1.102-9.437-1.594-33.941-1.84l-33.086-.367-.367-30.02c-.246-16.543 0-31.859.367-33.941l.734-4.043 35.781-.246 35.781-.367.367-7.477c.367-6.984.121-7.598-2.453-8.332-1.59-.367-21.934-.734-45.336-.734-39.332 0-42.641.121-43.746 2.082zm577.996 34.679c-6.371.855-9.68 1.961-19.359 6.492-4.535 2.207-21.078 19.238-23.527 24.141-7.844 16.297-9.926 25.977-9.191 43.133.98 23.281 6.496 39.211 17.648 50.852 12.129 12.742 23.281 16.91 44.477 16.91 15.688 0 23.527-1.84 36.516-8.332 8.457-4.168 9.191-5.395 8.578-15.562-.367-6.863-1.961-8.699-4.902-5.637-2.937 2.941-15.316 9.066-21.441 10.539-25.121 6.371-45.34-.98-54.773-19.977-3.43-7.105-7.473-23.281-6.371-25.977.613-1.594 7.719-1.836 47.789-1.836 45.461 0 47.297-.125 48.523-2.328 1.715-3.309 1.594-8.211-.734-22.059-1.961-12.496-2.086-12.863-7.109-23.648-3.309-7.105-10.906-15.93-16.91-19.727-9.926-6.129-25.117-8.824-39.211-6.984zm20.711 17.891c6.859 2.328 15.438 10.047 18.867 17.031 3.188 6.492 5.148 18.871 3.309 21.074-.98 1.348-8.453 1.594-37.004 1.348l-35.656-.367-.371-3.922c-.242-2.082.98-6.984 2.574-10.781 8.578-20.34 29.285-30.758 48.281-24.383zM641.988 345.34c-7.965 2.086-20.711 14.215-23.285 22.301-1.59 5.027-2.937.246-2.203-7.84.367-4.043 0-8.824-.734-10.785-1.105-2.941-1.961-3.309-6.742-3.309-3.062 0-6.859.492-8.578 1.227l-3.184 1.227v66.656c0 75.359-1.227 68.129 11.027 68.129 5.391 0 7.23-.488 7.844-1.957.367-1.105.734-18.383.734-38.477 0-40.559.98-48.281 7.719-62.25 4.41-9.187 10.047-14.211 18.992-17.031 5.637-1.836 7.23-1.836 12.254-.488 10.539 3.063 10.66 2.938 11.027-6.004.492-10.664-1.348-12.254-13.723-12.133-4.777.121-9.801.492-11.148.734zm-156.847 18.625c-21.074 4.289-35.043 24.02-34.922 49.629.125 17.277 6.863 32.102 18.504 40.68 6.492 4.656 19.605 9.066 27.449 9.066 5.391 0 18.746-3.551 24.629-6.613 5.023-2.574 15.316-13.848 16.91-18.504.121-.734 1.102-3.187 2.082-5.516.855-2.449 1.836-10.535 2.082-18.746.367-12.375 0-15.562-2.203-22.059-4.289-12.375-10.539-19.727-22.059-25.73-4.902-2.449-24.262-3.797-32.473-2.207zm0 0"/></svg>