<svg width="50" height="50" xmlns="http://www.w3.org/2000/svg" zoomAndPan="magnify" viewBox="0 0 810 810" preserveAspectRatio="xMidYMid meet" xmlns:v="https://vecta.io/nano"><defs><clipPath id="A"><path d="M142.824 105.805h540.641v534.719H142.824zm0 0" clip-rule="nonzero"/></clipPath><clipPath id="B"><path d="M283.5 462.676h243v243h-243zm0 0" clip-rule="nonzero"/></clipPath></defs><g clip-path="url(#A)"><path fill="#fff" d="M142.824 105.805h540.984v534.719H142.824zm0 0"/></g><g clip-path="url(#B)"><path fill="#fff" d="M283.5 462.676h243v243h-243zm0 0"/></g><path fill="#c3002f" d="M327.797 31.895L41.512 133.523c-11.137 3.922-10.629 2.785-8.605 19.109.758 5.445 5.316 44.68 10.125 87.203l10.125 87.328 6.961 60.117 7.594 65.813 7.594 65.813 6.961 60.75 3.672 30.754c1.266 11.012 2.531 20.25 2.781 20.379.508.504 67.461 37.461 117.578 65.051l84.797 46.703 83.277 46.066c16.199 8.988 30.121 16.328 30.883 16.328 1.645 0 7.465-3.164 75.051-40.5l77.203-42.652 74.039-40.879 69.23-38.223c11.391-6.199 20.883-11.77 21.262-12.402.633-1.012 6.707-52.27 21.516-181.617l7.594-65.18 8.859-76.57 8.227-70.875 11.137-98.719c-.504-.379-26.832-9.746-130.738-46.574L406.266 4.555c-.379-.25-35.691 12.023-78.469 27.34zm11.391 113.398c0 1.395-26.453 61.383-27.59 62.523-1.012 1.012-81.379-6.203-82.52-7.34-.254-.383 12.023-13.164 27.211-28.352l27.844-27.844h27.465c15.188 0 27.59.379 27.59 1.012zm24.047 44.93v45.941l6.961 3.418c3.922 1.898 7.594 3.418 8.227 3.418.758 0 1.266-18.098 1.266-49.359v-49.484l7.973.379 7.848.379.379 113.527.254 113.652h-26.07l-83.406-31.008-85.305-32.02c-1.137-.633-3.797-8.988-6.578-20.629l-11.773-49.109-7.086-30.246c0-.379 4.43-.254 9.871.254l26.199 2.023 61.891 5.063 45.813 3.418c.129-.129 6.836-16.199 15.063-35.691l16.074-37.715c.758-1.52 2.656-2.152 6.707-2.152h5.695zm64.293 4.43l.254 49.613 15.188-7.594v-92.391h12.277l15.566 36.957 16.328 37.969c.758.758 26.324-1.012 120.105-8.48 14.051-1.141 26.074-1.898 26.707-1.645.504.254-1.395 10.379-4.305 22.527l-12.023 49.484-6.453 27.34-8.48 3.289-85.305 31.77-76.824 28.602h-29.234V144.156l7.973.379 7.848.379zm123.652-22.527c15.188 15.188 27.465 27.969 27.211 28.352-.758.633-82.52 8.477-83.023 7.973-1.266-1.141-27.086-61.004-27.086-62.395s5.188-1.773 27.59-1.773h27.465zM226.293 332.48l20.504 7.34 21.895 21.77c11.898 12.023 22.656 21.895 23.668 21.895s8.859-1.52 17.465-3.289c8.48-1.898 15.82-3.164 16.199-2.785s-5.312 9.238-12.781 19.742l-13.289 18.984v61.637c0 39.742-.379 61.383-1.266 61.129-.633-.254-22.273-17.973-48.094-39.359l-46.828-39.109v-67.582l1.012-67.586c.508 0 10.125 3.164 21.516 7.215zm377.41 59.484c0 36.828-.508 67.457-1.012 68.215s-21.895 18.859-47.715 40.375l-46.828 38.98-.633-61.887-.633-61.891-13.414-18.984c-7.594-10.758-12.785-19.109-11.898-19.363s7.973 1.137 15.82 2.91 15.188 3.164 16.328 3.164 11.77-9.746 23.664-21.641l21.645-21.645 20.121-7.34c11.012-4.051 21.137-7.469 22.402-7.469 2.027-.125 2.152 3.797 2.152 66.574zm-248.949-9.113l9.492 5.695h78.598l9.363-5.695c5.191-3.164 10-5.695 10.633-5.695.758 0 8.227 10.379 16.707 23.16l15.313 23.16v36.578l-.125 36.703-54.93 39.234-.379 7.215c-.254 4.051.125 7.34.758 7.34s8.48-5.316 17.465-11.77l26.832-18.984 10.379-7.34v16.07l-27.844 20-27.844 19.867v7.594c0 5.824.379 7.344 1.645 6.711l52.523-37.465c1.141-1.012 1.52.508 1.52 6.961v8.227l-27.844 19.996-27.844 19.871v7.469c0 4.051.254 7.34.633 7.34.254 0 12.531-8.605 27.086-18.984 14.555-10.504 26.828-18.984 27.211-18.984s.758 6.328.758 13.922v14.047l-11.516 17.34c-8.48 12.656-15.316 21.137-25.566 31.516l-14.176 14.301h-79.734l-14.68-14.809c-10.758-10.883-17.848-19.617-26.328-32.273l-11.641-17.34.379-13.922.379-13.793 27.211 19.363 27.211 19.492.379-6.457c.254-3.543.129-7.086-.125-7.848-.379-.883-12.91-10.25-27.973-21.008l-27.336-19.492v-7.973c0-6.199.379-7.848 1.645-7.215l52.523 37.465c1.141 1.012 1.52-.508 1.52-6.707l-.125-8.102-55.437-39.234-.125-7.973c0-4.305.254-7.848.633-7.848s12.656 8.605 27.086 18.984c14.555 10.504 26.828 18.984 27.211 18.984s.758-3.289.758-7.34v-7.34l-27.719-19.492-27.844-19.617v-36.07l-.125-36.07 15.566-23.668c8.48-13.035 16.074-23.668 16.961-23.668.887-.125 5.82 2.406 10.883 5.57zM276.918 536.5l23.035 19.488v29.617c0 16.199-.379 29.488-.887 29.488s-12.277-11.266-25.945-24.934l-25.059-25.059v-52.648l2.91 2.277c1.645 1.266 13.289 11.012 25.945 21.77zm256.543 53.281l-25.945 25.945.254-30.25.379-30.375 25.313-21.516 25.313-21.387.379 25.816.254 25.82zm0 0"/></svg>