<svg width="50" height="50" xmlns="http://www.w3.org/2000/svg" zoomAndPan="magnify" viewBox="0 0 810 810" preserveAspectRatio="xMidYMid meet" xmlns:v="https://vecta.io/nano"><defs><clipPath id="A"><path d="M341 208h127v423.336H341zm0 0" clip-rule="nonzero"/></clipPath></defs><g clip-path="url(#A)"><path fill="#ec079e" d="M454.809 212.336c-.754 2.113-25.992 95.5-56.363 207.773l-56.363 207.777c-.906 2.266 1.059 3.777 4.684 3.777 7.707 0 1.965 19.039 65.883-216.086l54.855-201.73c1.66-6.195-10.73-7.707-12.695-1.512zm0 0"/></g><g fill="#ec079e"><path d="M23.996 395.934v151.109h154.133c121.34 0 154.129-.758 154.129-3.777 0-2.117.906-6.801 1.965-10.578l1.813-6.801H45.152V265.98h356.77l2.871-7.707c1.66-4.383 3.02-9.066 3.02-10.578 0-1.812-74.949-2.871-191.906-2.871H23.996zm447.285-82.961c-1.664 4.383-3.023 9.066-3.023 10.578 0 1.813 58.781 2.871 149.598 2.871h149.598v259.91H586.125c-143.102 0-181.332.754-181.332 3.777 0 2.113-.906 6.801-1.965 10.578l-1.812 6.797H788.61V305.266H474.152zm0 0"/><path d="M192.633 333.223l-.906 21.91-34-.301-34-.305v25.992l31.734-1.812c36.266-2.117 35.664-2.719 23.723 22.516-9.973 21.156-28.105 41.102-46.844 51.828l-14.051 8.012 16.922 20.852 17.379-11.937c20.098-13.75 37.172-34 46.844-55.609l6.801-14.957 7.402 14.957c8.465 17.078 32.793 45.031 50.473 57.727l11.938 8.613 6.801-8.312c9.215-11.332 8.914-13.75-3.176-20.098-19.039-10.426-59.234-59.387-59.234-72.531 0-1.816 12.844-2.27 33.246-1.059l33.242 1.66v-26.141l-35.66 1.664-35.512 1.508 1.207-22.969 1.059-23.117h-24.48zm345.137 52.132v10.578h51.527l-.301 71.473-.305 71.324 13.902.453 13.75.305V395.934h51.379v-21.156H537.77zm0 0"/></g></svg>