<svg xmlns="http://www.w3.org/2000/svg" viewBox="0 0 442.528 404.546"><title>Atrigen Logo</title><path fill="#DADADA" d="M72.573 242.9c3.184-12.108 7.175-23.041 11.965-34.174.496-1.153.742-2.197.681-3.591l-6.641 13.528c-1.692 3.447-3.002 7.003-4.387 10.624-5.385 14.08-12.92 34.273 2.179 44.983 10.498 7.446 27.423 5.337 39.384 3.05 2.593-.496 5.287-1.089 7.823-1.818l8.695-2.501c14.455-4.158 28.186-9.181 42.147-14.827l29.316-11.854 54.127-20.853c12.164-4.686 24.046-8.062 36.593-11.439 14.036-3.777 27.953-5.988 42.359-7.816 10.535-1.337 27.684-1.52 38.062.023 19.149 2.846 34.421 9.911 47.142 24.692 12.466 14.485 18.43 32.133 20.112 50.947 1.554 17.383-1.16 33.76-12.797 47.369-5.092 5.955-11.206 10.932-18.367 14.344-10.427 4.968-22.874 6.627-34.151 5.068-16.869-2.331-27.739-12.098-35.69-26.586-4.272-8.836-8.169-17.545-11.319-26.887l-7.226-21.431c-28.947 11.825-55.304 26.62-81.531 42.619l-33.543 20.462-46.784 27.372c-13.245 7.749-26.51 14.048-40.521 20.366-26.999 12.173-68.896 27.333-97.496 15.955-12.464-4.959-21.12-13.795-22.451-27.677-1.623-16.924 4.848-33.021 11.995-48.351 5.946-12.754 11.963-24.875 18.883-37.196l23.699-42.198c20.84-37.107 43.093-72.688 66.189-108.414l26.801-41.456 8.717-13.076c14.197-21.298 32.986-48.703 52.278-65.166 28.323-24.17 68.761-23.337 91.442 7.538 6.036 8.217 10.519 17.04 14.636 26.388l14.757 33.503 22.124 50.156 15.055 34.445 15.26 35.014c-7.097-1.551-13.391-2.516-20.578-2.745l-5.581-7.852c-8.392-11.807-17.345-22.72-26.873-33.677-10.483-12.055-22.444-23.078-35.983-31.491-23.818-14.801-48.267-8.761-69.445 7.446-27.631 21.146-56.044 52.333-77.622 79.883 2.863-2.093 4.926-4.519 7.244-7.107l6.373-7.095 5.669-6.304 8.358-9.055c10.31-11.17 20.692-21.902 32.055-31.997l6.471-5.749c7.532-6.691 15.401-12.59 24.082-17.841 5.692-3.443 13.749-6.303 20.334-7.321 16.635-2.574 31.228 3.943 43.891 14.178 19.961 16.134 30.787 29.634 46.208 49.651 3.612 4.689 6.524 9.042 9.955 14.327l-11.723.463c-13.518.534-30.483 4.128-44.34 7.289l-7.405-16.602c-6.837-15.329-13.351-31.954-23.719-45.121-3.032-3.85-7.014-6.992-11.749-8.36-18.861-5.449-44.399 36.063-52.306 49.872-10.384 18.134-19.878 36.216-28.304 55.367l-4.77 10.842-16.465 6.342c-7.859 3.027-15.614 5.323-23.723 7.733-14.132 4.2-39.641 10.97-52.701 2.788-1.813-1.136-3.991-3.313-5.221-5.125-4.141-6.096-3.659-16.223-1.646-23.875Zm72.455-24.255-.974-1.416-1.856 2.983 2.83-1.567Zm16.149 129.883 30.182-17.993 24.155-14.356c20.663-12.281 41.115-24.07 62.929-34.14l18.084-8.349c14.185-6.549 28.617-11.482 43.8-15.342 7.106-1.806 13.999-2.775 21.269-3.401 13.071-1.126 24.973.511 37.119 5.209 7.49 2.898 13.71 7.266 19.311 12.935 7.951 8.047 13.224 18.044 14.689 29.45l.703 5.472c.366 1.513.499 1.58.868-.007.108-12.297-2.038-21.955-9.158-31.624-21.487-29.183-60.229-28.213-92.017-19.308-21.073 5.903-45.261 16.595-64.636 26.664l-15.453 8.031-26.156 14.8-17.033 10.083-27.042 16.591-31.491 19.318-23.843 13.623-5.852 3.172-11.217 5.982-9.197 4.907c.698.05 2.153-.019 2.628-.261l15.807-8.061 3.395-1.866 10.71-5.842 12.489-6.982 14.958-8.705Z"/></svg>