<svg version="1.0" xmlns="http://www.w3.org/2000/svg" width="400.000000ptpx" height="120.000000ptpx" viewBox="0 0 400.000000 120.000000" preserveAspectRatio="xMidYMid meet" transform="rotate(0) scale(1, 1)">
<g transform="translate(0.000000,120.000000) scale(0.100000,-0.100000)" fill="#a3a3a3" stroke="none">
<path d="M557 1144 c-15 -8 -25 -19 -22 -24 3 -5 31 -9 63 -9 31 0 70 -5 87&#10;-11 81 -31 135 -104 115 -156 -6 -15 -8 -39 -5 -54 5 -23 -4 -34 -76 -96 -44&#10;-38 -89 -80 -99 -94 l-18 -24 -73 69 c-41 38 -75 74 -77 79 -1 6 9 46 22 89&#10;18 58 21 80 13 87 -26 21 -211 140 -217 140 -4 0 -15 -9 -25 -20 -10 -11 -24&#10;-20 -32 -20 -31 0 -8 -39 56 -94 l68 -59 -17 -45 c-14 -37 -24 -47 -56 -58&#10;l-39 -13 -70 69 c-39 39 -73 70 -77 70 -4 0 -16 -13 -28 -30 l-21 -30 66 -82&#10;c37 -45 73 -95 81 -111 12 -23 20 -28 37 -22 12 3 49 11 82 17 l61 11 54 -57&#10;c30 -32 56 -62 58 -66 2 -5 -14 -24 -35 -43 -320 -290 -395 -363 -381 -371 22&#10;-13 75 -63 83 -79 5 -11 22 -29 36 -40 22 -15 30 -17 48 -8 28 15 340 334 365&#10;372 10 17 25 29 33 27 8 -2 108 -97 223 -212 195 -196 210 -208 237 -202 43&#10;11 83 54 83 91 0 35 -27 63 -290 300 -91 82 -166 151 -168 155 -1 3 43 50 98&#10;105 78 77 103 96 112 87 7 -7 31 -12 55 -12 35 0 50 -6 80 -34 35 -32 37 -36&#10;24 -59 -10 -19 -10 -29 -2 -46 19 -35 52 -25 116 34 l59 54 -17 37 c-16 33&#10;-20 36 -51 30 -33 -6 -35 -5 -72 61 -48 87 -198 235 -272 270 -52 24 -144 43&#10;-212 42 -19 0 -48 -7 -63 -15z m356 -214 c3 -14 12 -19 27 -18 13 2 25 -3 27&#10;-10 3 -7 -1 -10 -11 -6 -12 4 -16 0 -16 -15 0 -34 -25 -24 -43 17 -9 21 -17&#10;42 -17 45 0 4 6 7 14 7 7 0 16 -9 19 -20z m-28 -79 c-3 -6 -11 -11 -16 -11 -5&#10;0 -4 6 3 14 14 16 24 13 13 -3z m118 -8 c-7 -2 -19 -2 -25 0 -7 3 -2 5 12 5&#10;14 0 19 -2 13 -5z m-443 -238 c-7 -8 -16 -15 -21 -15 -15 0 -10 22 9 36 20 15&#10;29 0 12 -21z m78 6 c-7 -12 -23 -24 -35 -27 -41 -11 -23 -48 22 -49 12 0 21&#10;-8 23 -20 3 -16 1 -18 -9 -7 -18 17 -89 16 -89 -1 0 -8 -11 -24 -25 -37 l-24&#10;-23 -12 26 c-9 21 -9 30 1 42 17 20 30 19 30 -2 0 -14 3 -14 12 -5 10 10 10&#10;15 -1 21 -17 11 -8 39 16 48 10 4 36 19 58 34 22 15 41 26 43 24 2 -2 -3 -13&#10;-10 -24z m0 -42 c-2 -6 -8 -10 -13 -10 -5 0 -11 4 -13 10 -2 6 4 11 13 11 9 0&#10;15 -5 13 -11z m-163 -109 c-4 -6 -1 -17 5 -25 9 -11 9 -15 1 -15 -6 0 -11 4&#10;-11 9 0 5 -9 7 -20 4 -19 -5 -19 -6 -4 -18 15 -11 15 -13 -7 -19 -23 -6 -24&#10;-7 -5 -21 15 -11 16 -15 5 -15 -8 0 -20 5 -26 11 -17 17 -43 -12 -36 -40 3&#10;-12 1 -21 -6 -21 -6 0 -11 9 -11 20 0 11 -4 20 -10 20 -5 0 -10 -7 -10 -16 0&#10;-27 -77 -124 -98 -124 -3 0 -17 -12 -29 -27 -27 -31 -42 -24 -23 11 7 14 18&#10;22 26 19 8 -3 14 1 14 11 0 9 5 16 11 16 5 0 7 5 4 10 -8 13 22 43 34 36 5 -3&#10;7 4 3 16 -4 17 -2 20 11 15 12 -4 17 -1 17 12 0 10 11 24 25 31 14 7 25 18 25&#10;24 1 17 49 68 59 62 4 -3 17 1 27 9 22 17 38 19 29 5z m425 -150 c0 -5 -4 -10&#10;-10 -10 -5 0 -10 5 -10 10 0 6 5 10 10 10 6 0 10 -4 10 -10z"/>
<path d="M390 405 c0 -8 7 -15 15 -15 8 0 15 7 15 15 0 8 -7 15 -15 15 -8 0&#10;-15 -7 -15 -15z"/>
<path d="M1288 1023 c6 -2 18 -2 25 0 6 3 1 5 -13 5 -14 0 -19 -2 -12 -5z"/>
<path d="M1399 1016 c-2 -2 -4 -67 -3 -143 l0 -138 30 0 c27 0 29 2 26 38 l-4&#10;37 56 0 c47 0 61 4 88 29 28 25 33 36 33 75 0 36 -6 51 -29 75 -28 30 -33 31&#10;-111 31 -45 0 -84 -2 -86 -4z m167 -71 c21 -32 11 -73 -19 -80 -12 -2 -38 -6&#10;-57 -7 l-35 -3 -3 58 -3 57 50 0 c43 0 53 -4 67 -25z"/>
<path d="M1670 1018 c0 -2 -1 -67 -3 -146 l-2 -142 28 0 c28 0 29 1 25 50 -3&#10;45 -1 51 19 56 33 9 55 -9 72 -57 14 -38 21 -44 49 -47 40 -4 41 10 6 62 -22&#10;31 -25 42 -15 55 28 39 39 75 30 105 -15 53 -41 66 -130 66 -43 0 -79 -1 -79&#10;-2z m156 -73 c23 -36 4 -62 -50 -70 -25 -4 -49 -4 -54 -1 -11 7 -3 88 9 97 5&#10;3 25 3 44 1 24 -3 41 -12 51 -27z"/>
<path d="M1985 1001 c-42 -23 -78 -96 -72 -143 12 -95 115 -156 195 -114 15 8&#10;38 26 52 41 21 23 25 36 25 92 0 65 -1 66 -44 104 -36 32 -51 39 -85 38 -22 0&#10;-54 -8 -71 -18z m116 -44 c51 -39 51 -125 0 -164 -9 -7 -32 -13 -52 -13 -50 0&#10;-82 35 -83 94 -1 34 5 50 23 70 18 19 34 26 60 26 20 0 43 -6 52 -13z"/>
<path d="M2230 875 l0 -145 80 0 c90 0 117 11 150 65 28 45 27 127 -1 166 -32&#10;45 -68 59 -154 59 l-75 0 0 -145z m176 67 c23 -23 25 -33 21 -75 -6 -67 -27&#10;-87 -94 -87 l-53 0 0 94 c0 58 4 96 11 98 5 2 28 2 49 0 26 -3 49 -13 66 -30z"/>
<path d="M2599 993 c-6 -15 -15 -37 -19 -48 -4 -11 -12 -31 -18 -45 -7 -14&#10;-21 -51 -32 -82 -12 -32 -26 -60 -31 -64 -15 -9 0 -24 26 -24 19 0 28 9 39 33&#10;13 33 15 33 72 32 55 -2 59 -4 71 -33 11 -26 19 -32 43 -32 19 0 30 5 30 14 0&#10;8 -4 17 -9 20 -5 4 -22 39 -36 79 -15 39 -33 86 -41 102 -7 17 -14 39 -16 50&#10;-2 14 -12 21 -36 23 -27 3 -34 -1 -43 -25z m75 -154 c-7 -12 -71 -12 -78 0 -6&#10;10 19 78 37 100 9 10 15 2 29 -39 10 -29 15 -56 12 -61z"/>
<path d="M2799 1018 c-1 -2 -3 -23 -5 -48 -3 -38 3 -59 45 -140 44 -85 51 -95&#10;76 -95 25 0 32 9 70 85 33 64 44 99 46 140 3 55 3 55 -26 55 -30 0 -30 -1 -26&#10;-49 2 -38 -3 -62 -25 -107 -16 -33 -34 -59 -40 -59 -6 0 -23 26 -38 58 -21 44&#10;-27 69 -24 107 3 48 2 50 -24 53 -16 2 -28 2 -29 0z"/>
<path d="M3077 1013 c-2 -5 -5 -70 -6 -146 l-2 -138 28 3 c28 3 28 4 26 68 -2&#10;36 -5 80 -8 98 -4 18 -2 32 4 32 6 0 43 -44 84 -97 55 -74 79 -99 99 -101 l26&#10;-3 1 145 1 146 -31 0 -30 0 7 -95 c5 -67 3 -95 -4 -95 -6 0 -42 43 -79 95 -50&#10;71 -73 95 -90 95 -12 0 -24 -3 -26 -7z"/>
<path d="M3379 1016 c0 -3 -1 -68 -1 -143 l0 -138 27 0 28 0 0 140 0 140 -26&#10;3 c-15 2 -27 1 -28 -2z"/>
<path d="M3524 988 c-67 -62 -67 -167 1 -227 28 -24 45 -31 78 -31 32 0 51 7&#10;75 28 30 24 32 29 19 46 -14 19 -15 19 -37 -2 -31 -29 -80 -29 -108 1 -41 44&#10;-41 109 0 147 28 26 79 26 103 0 10 -11 22 -20 26 -20 5 0 14 10 20 22 10 19&#10;8 25 -17 45 -21 17 -42 23 -77 23 -40 0 -53 -5 -83 -32z"/>
<path d="M3822 1008 c-6 -6 -12 -18 -12 -26 0 -8 -7 -26 -15 -40 -24 -44 -83&#10;-201 -77 -207 3 -3 16 -5 29 -5 14 0 26 7 29 18 13 41 20 45 77 46 56 1 57 0&#10;68 -31 9 -29 15 -33 45 -33 24 0 34 5 34 15 0 8 -4 15 -8 15 -10 0 -26 38 -75&#10;170 -28 73 -35 85 -57 88 -14 2 -31 -3 -38 -10z m53 -109 c13 -29 22 -56 19&#10;-60 -6 -10 -55 -12 -78 -3 -13 5 -14 10 -2 32 7 15 16 39 20 55 3 15 9 27 11&#10;27 3 0 16 -23 30 -51z"/>
<path d="M2534 621 c-2 -2 -4 -19 -4 -38 l0 -33 60 0 60 0 0 -186 0 -185 43 3&#10;42 3 1 180 2 180 61 3 62 3 -3 35 -3 35 -158 2 c-87 1 -161 0 -163 -2z"/>
<path d="M1590 607 c0 -7 -45 -104 -100 -216 -56 -111 -99 -205 -96 -209 3 -5&#10;26 -6 51 -3 45 6 47 7 68 60 l22 54 73 -1 c41 0 77 -3 80 -7 4 -3 14 -27 23&#10;-53 15 -45 17 -47 59 -50 23 -2 46 0 50 5 5 4 -32 89 -81 188 -49 99 -93 194&#10;-97 210 -6 20 -15 31 -30 33 -14 2 -22 -2 -22 -11z m50 -198 c11 -23 17 -46&#10;14 -50 -7 -13 -84 -11 -84 1 0 27 26 90 37 90 7 0 22 -19 33 -41z"/>
<path d="M1886 404 l2 -217 172 -1 173 -1 19 52 20 51 67 4 c36 2 73 0 82 -4&#10;9 -4 20 -20 24 -35 3 -16 13 -38 21 -50 11 -18 24 -23 59 -23 25 0 45 2 45 5&#10;0 4 -174 365 -199 415 -15 28 -36 22 -49 -14 -7 -20 -51 -113 -97 -208 -80&#10;-166 -84 -172 -94 -144 -11 28 -12 28 -84 25 l-72 -4 1 183 1 182 -46 0 -46 0&#10;1 -216z m492 9 c11 -21 17 -44 15 -50 -5 -15 -69 -18 -78 -4 -9 15 18 91 32&#10;91 7 0 21 -17 31 -37z"/>
<path d="M3010 607 c0 -8 -45 -105 -100 -216 -56 -111 -99 -205 -96 -209 3 -5&#10;26 -6 51 -3 45 6 47 7 68 60 l22 54 73 0 c40 0 77 -4 81 -9 5 -5 14 -27 21&#10;-49 7 -22 18 -43 24 -47 12 -8 96 -11 96 -3 0 4 -174 365 -199 415 -11 20 -41&#10;25 -41 7z m50 -197 c0 -9 5 -21 11 -27 19 -19 0 -33 -42 -33 -42 0 -47 9 -30&#10;52 5 13 12 31 15 42 6 18 7 18 26 1 11 -10 20 -26 20 -35z"/>
<path d="M975 591 c-3 -6 4 -15 15 -21 20 -11 21 -10 10 9 -12 23 -16 25 -25&#10;12z"/>
<path d="M3514 471 c-2 -2 -4 -69 -4 -148 l0 -144 43 3 42 3 0 96 c0 82 3 100&#10;19 118 12 13 26 19 35 15 9 -3 21 -8 28 -11 14 -5 47 53 38 67 -6 9 -191 10&#10;-201 1z"/>
<path d="M3769 451 c-41 -41 -39 -82 4 -115 17 -13 44 -27 59 -31 14 -4 34&#10;-15 44 -26 14 -15 14 -21 4 -34 -18 -22 -43 -18 -70 10 -13 14 -27 25 -32 25&#10;-5 0 -19 -7 -32 -15 -32 -21 -24 -47 24 -74 65 -36 163 -22 190 28 15 28 12&#10;73 -5 98 -8 12 -40 29 -70 38 -46 15 -55 21 -55 41 0 28 24 32 54 9 16 -12 22&#10;-12 47 1 16 8 29 20 29 27 0 23 -56 47 -110 47 -44 0 -56 -4 -81 -29z"/>
<path d="M3309 239 c-17 -33 3 -69 39 -69 33 0 52 16 52 45 0 29 -19 45 -52&#10;45 -18 0 -31 -7 -39 -21z"/>
</g>
</svg>