<svg version="1.1" xmlns="http://www.w3.org/2000/svg" xmlns:xlink="http://www.w3.org/1999/xlink" x="0px" y="0px" enable-background="new 0 0 600 145" xml:space="preserve" viewBox="0 0 600 145" height="30px" width="100px" transform="rotate(0) scale(1, 1)"><g id="logotype" fill="#dadada"><path d="M96.85,72.45c0,12.78-10.36,23.13-23.13,23.13c-12.77,0-23.13-10.35-23.13-23.13&#10;&#9;&#9;&#9;&#9;&#9;&#9;&#9;c0-12.77,10.36-23.13,23.13-23.13C86.49,49.32,96.85,59.68,96.85,72.45z"/><path d="M97.83,112.64c-7.02,4.3-15.27,6.78-24.11,6.78c-25.55,0-46.26-20.71-46.26-46.26&#10;&#9;&#9;&#9;&#9;&#9;&#9;&#9;c0-25.55,20.71-46.26,46.26-46.26c25.55,0,46.26,20.71,46.26,46.26c0,8.24-2.16,15.96-5.93,22.66l16.77,16.77&#10;&#9;&#9;&#9;&#9;&#9;&#9;&#9;c7.75-11.2,12.29-24.78,12.29-39.43c0-38.32-31.07-69.39-69.39-69.39C35.4,3.77,4.33,34.83,4.33,73.15&#10;&#9;&#9;&#9;&#9;&#9;&#9;&#9;c0,38.32,31.07,69.39,69.39,69.39c15.24,0,29.33-4.92,40.77-13.24L97.83,112.64z"/></g><g id="quiddita" fill="#dadada"><rect x="316.95" y="38.5" width="10.95" height="68.95"/><path d="M247.41,100.55l-7.17-7.16c4.17-5.75,6.63-12.82,6.63-20.45c0-19.27-15.67-34.94-34.94-34.94&#10;&#9;&#9;&#9;&#9;&#9;&#9;&#9;C192.68,38,177,53.68,177,72.95c0,19.26,15.67,34.94,34.94,34.94c7.69,0,14.81-2.5,20.58-6.73l7.15,7.14L247.41,100.55z&#10;&#9;&#9;&#9;&#9;&#9;&#9;&#9;M211.94,96.93c-13.23,0-23.99-10.76-23.99-23.99c0-13.23,10.76-23.99,23.99-23.99c13.23,0,23.99,10.76,23.99,23.99&#10;&#9;&#9;&#9;&#9;&#9;&#9;&#9;c0,4.6-1.32,8.89-3.58,12.55l-7.54-7.54l-7.74,7.74l7.56,7.57C220.94,95.57,216.6,96.93,211.94,96.93z"/><rect x="458.98" y="38.5" width="10.96" height="68.95"/><polygon points="530.73,38.5 477.46,38.5 477.46,49.46 498.62,49.46 498.62,107.46 509.57,107.46 509.57,49.46 &#10;&#9;&#9;&#9;&#9;&#9;&#9;&#9;530.73,49.46"/><path d="M573.32,107.46h11.46L560.71,38.5h-10.67l-24.96,68.95h11.22l4.93-15.4h27L573.32,107.46z M544.75,81.1&#10;&#9;&#9;&#9;&#9;&#9;&#9;&#9;l9.78-30.53l10.09,30.53H544.75z"/><path d="M281.02,108.02l-0.46,0c-12.14-0.14-26.35-5.68-26.35-30.91V38.5h10.95v38.61&#10;&#9;&#9;&#9;&#9;&#9;&#9;&#9;c0,17.33,7.45,19.9,15.57,19.96h0.02c7.76-0.05,15.68-2.46,15.68-19.96V38.5h10.94v38.61&#10;&#9;&#9;&#9;&#9;&#9;&#9;&#9;C307.36,102.39,293.08,107.89,281.02,108.02L281.02,108.02z"/><path d="M392.06,73.03c0-0.11,0.01-0.21,0.01-0.32h-0.01c0.23-18.84-9.45-30.5-27.21-33.64&#10;&#9;&#9;&#9;&#9;&#9;&#9;&#9;c-5.62-0.99-27.34-0.53-27.34-0.53v0.03v68.92v0.03c0,0,22.07-0.03,27.34-0.53c17.95-1.7,27.43-14.8,27.21-33.64h0.01&#10;&#9;&#9;&#9;&#9;&#9;&#9;&#9;C392.07,73.24,392.06,73.14,392.06,73.03z M363.12,96.18c-5.59,0.9-11.23,0.97-14.66,0.91V48.98c3.43-0.07,9.07,0.01,14.66,0.91&#10;&#9;&#9;&#9;&#9;&#9;&#9;&#9;c12.42,1.99,18.31,9.56,17.99,23.15C381.42,86.61,375.53,94.19,363.12,96.18z"/><path d="M452.79,73c0-0.11,0-0.21,0-0.32h0c0.23-18.84-9.45-30.5-27.21-33.64c-5.62-0.99-27.34-0.53-27.34-0.53&#10;&#9;&#9;&#9;&#9;&#9;&#9;&#9;v0.04v68.92v0.03c0,0,22.07-0.03,27.34-0.53c17.96-1.7,27.44-14.8,27.21-33.64h0C452.79,73.21,452.78,73.11,452.79,73z&#10;&#9;&#9;&#9;&#9;&#9;&#9;&#9;M423.84,96.14c-5.59,0.9-11.22,0.98-14.66,0.91V48.94c3.44-0.07,9.07,0.01,14.66,0.91c12.43,1.99,18.31,9.56,18,23.15&#10;&#9;&#9;&#9;&#9;&#9;&#9;&#9;C442.15,86.58,436.27,94.15,423.84,96.14z"/><rect x="316.95" y="38.5" width="10.95" height="68.95"/></g></svg>