<?xml version="1.0" encoding="utf-8"?>
<!-- Generator: Adobe Illustrator 26.3.1, SVG Export Plug-In . SVG Version: 6.00 Build 0)  -->
<svg version="1.1" id="Layer_1" xmlns="http://www.w3.org/2000/svg" xmlns:xlink="http://www.w3.org/1999/xlink" x="0px" y="0px"
	 viewBox="0 0 200 153" style="enable-background:new 0 0 200 153;" xml:space="preserve">
<style type="text/css">
	.st0{fill:#DADADA;}
</style>
<g transform="translate(0.000000,338.000000) scale(0.100000,-0.100000)">
	<path class="st0" d="M72.8,3306.2c-1.2-1.2-2.4-92.9-2.4-203v-200h375.7h375.7v-79.9c0-59.8-1.8-79.9-7.1-80.5
		c-22.5-3-621.3,1.2-674.6,4.7l-63.9,3.6v-74.6c0-43.8,2.4-75.1,5.9-76.3c3-0.6,201.2-0.6,440.2,1.2l434.9,3l1.8,218.9l1.8,218.9
		l-374,1.8l-374.6,1.2v59.2v59.2h369.2h369.2l4.1,68.6c2.4,37.3,3,69.2,1.8,70.4C953.3,3306.2,76.3,3309.2,72.8,3306.2z"/>
	<path class="st0" d="M1663.9,3307.4c-14.8-1.8-19.5-5.3-19.5-14.2c0-8.3,4.1-11.2,14.8-11.2h14.8v-59.2v-59.2h17.8h17.8v56.2v56.2
		h17.8c14.8,0,17.8,2.4,17.8,14.8c0,13-2.4,14.8-23.1,14.8c-13,0-26.6,1.2-31.4,1.8C1686.4,3308.6,1674,3308.6,1663.9,3307.4z"/>
	<path class="st0" d="M1882.8,3306.8c-12.4-1.2-19.5-5.3-19.5-10.7c0-16-17.8-43.8-26-40.2c-4.1,1.8-11.2,13.6-14.8,26.6
		c-7.1,22.5-8.3,23.7-29,21.9l-21.9-1.8l-6.5-44.4c-3.6-24.3-8.9-55.6-11.2-69.2c-4.7-25.4-4.1-25.4,13.6-25.4
		c18.9,0,24.9,10.1,24.9,43.2c0,25.4,14.2,18.9,27.8-13.6c7.1-16,15.4-29.6,18.9-29.6c7.1,0,18.3,17.8,27.8,44.4
		c8.3,23.1,15.4,20.1,18.3-7.1c3-33.7,5.9-37.3,25.4-37.3h18.9l-4.1,40.2c-4.7,50.3-14.2,101.2-19.5,103.6
		C1903.6,3308,1892.9,3308,1882.8,3306.8z"/>
	<path class="st0" d="M1034.9,2954.1c0-275.1,1.8-352.1,7.7-353.3c3.6-1.2,203.6-2.4,443.2-2.4h436.1l1.8,221.9l1.8,221.9
		l-317.8,1.8l-318.3,1.2v-71v-71h245c228.4,0,245.6-0.6,247.9-10.1c2.4-8.3,1.2-131.4-1.2-151.5c-0.6-2.4-135.5-3.6-300.6-3
		l-300.6,1.8v210.1v210.1h213h213l1.8,72.8l1.8,72.2h-287.6h-287V2954.1z"/>
	<path class="st0" d="M579.3,2418.1c0-128.4-3-124.3,85.8-124.3c62.1,0,62.1,0,62.1,14.8c0,14.2-1.2,14.2-54.4,16l-55,1.8v59.2v59.2
		l52.1,1.8l51.5,1.8v17.2v17.8h-46.7c-46.7,0-46.7,0-55,17.8c-5.9,13.6-11.2,17.8-23.7,17.8h-16.6V2418.1z"/>
	<path class="st0" d="M1151.5,2511.5c-1.2-4.7-2.4-49.7-1.8-101.2c1.2-108.3,4.7-116.6,49.1-116.6c23.1,0,25.4,1.2,25.4,14.8
		c0,11.8-3,14.8-14.2,14.8c-25.4,0-29,11.8-24.9,84.6c2.4,36.1,4.7,75.7,5.3,87c1.2,18.9,0,20.7-17.2,22.5
		C1161.5,2518.6,1153.8,2516.3,1151.5,2511.5z"/>
	<path class="st0" d="M81.1,2486.1c-6.5-6.5,20.7-56.2,46.2-84c16-17.2,61.5-47.3,144.4-95.3c66.9-38.5,132.5-77.5,146.7-86.4
		s31.4-18.3,38.5-21.9c7.1-3,21.3-10.7,30.8-17.2c10.1-6.5,21.9-13.6,26.6-16c4.7-2.4,68.6-39.1,142-81.7
		c73.4-42.6,137.3-79.3,142-81.7c14.8-7.7,33.7-18.9,42-26c4.7-3.6,27.2-16,49.7-28.4c33.7-17.8,49.7-22.5,85.8-24.9
		c57.4-4.1,79.3,2.4,147.9,43.2c30.8,17.8,76.3,43.8,100.6,57.4c24.3,13,80.5,45,124.3,71c43.8,26,85.2,49.1,91.7,52.1
		c6.5,3,20.1,10.1,29.6,16.6c35.5,21.3,262.1,152.1,324.3,186.4c56.8,32,97.6,76.3,108.3,118.3l3.6,15.4h-198.8h-198.8v-84.6
		c0-81.1-0.6-84.6-13-92.3c-7.7-4.7-42.6-25.4-78.7-46.2l-65.1-37.3H989.3c-199.4,0-362.7,1.8-362.7,4.7c0,2.4-5.9,7.1-13.6,10.7
		c-30.2,14.8-119.5,69.2-123.1,74.6c-2.4,3.6-3,43.2-1.2,88.2l3.6,82.2h-97.6c-53.8,0-145,1.8-203.6,3.6
		C133.1,2489.1,83.4,2488.5,81.1,2486.1z"/>
	<path class="st0" d="M756.8,2470.1c-11.8-12.4-12.4-18.9-10.7-82.2c2.4-93.5,3-94.1,88.2-94.1c61.5,0,63.9,0.6,75.7,15.4
		c10.7,13.6,12.4,24.3,12.4,82.2c0,61.5-1.2,66.9-13.6,78.7s-20.1,13-76.9,13C774.6,2483.1,768,2482,756.8,2470.1z M889.3,2432.3
		c5.3-13.6,4.1-92.9-1.8-101.8c-3-5.3-18.3-7.1-54.4-5.9l-49.7,1.8l-1.8,49.7c-1.2,27.2-0.6,53.3,1.2,58
		C787.6,2446.5,884.6,2444.7,889.3,2432.3z"/>
	<path class="st0" d="M968.6,2479c-14.8-3.6-22.5-33.7-22.5-87c0-51.5,7.1-85.8,18.9-93.5c4.1-2.4,34.9-4.7,68-4.7
		c55,0,61.5,1.2,75.1,14.2c14.8,13,15.4,16.6,15.4,82.2c0,66.9-0.6,68.6-15.4,80.5c-13.6,10.7-23.7,12.4-72.8,11.8
		C1004.1,2482,974,2480.8,968.6,2479z M1085.2,2385.5v-59.2l-51.5-1.8l-52.1-1.8v62.7v62.7l52.1-1.8l51.5-1.8V2385.5z"/>
	<path class="st0" d="M1261.5,2477.2c-7.7-3-16-14.8-20.1-29c-5.9-20.1-5.3-26,3-38.5c11.2-17.8,37.9-30.2,75.1-35.5
		c37.9-5.9,58.6-15.4,58.6-26.6c0-21.3-8.9-24.9-53.8-23.1c-42.6,1.8-43.8,2.4-45.6,18.3c-1.8,13.6-4.7,16-20.1,16
		c-17.8,0-18.3-0.6-14.8-23.7c5.3-39.1,9.5-41.4,80.5-41.4c74.6,0.6,84.6,5.3,87,42.6c0.6,16-1.8,29-7.1,34.9
		c-4.7,5.3-32,16-60.4,23.1c-56.8,15.4-66.3,20.1-66.3,35.5c0,14.2,11.8,17.8,56.2,17.8c33.7,0,37.9-1.2,42-13
		c4.7-17.2,12.4-21.9,26.6-18.3c16,4.1,15.4,37.9-1.2,52.7c-10.1,8.9-23.1,11.2-69.8,12.4C1300,2482.5,1268.6,2480.2,1261.5,2477.2z
		"/>
</g>
</svg>
