<?xml version="1.0" standalone="no"?> <!DOCTYPE svg PUBLIC "-//W3C//DTD SVG 20010904//EN" "http://www.w3.org/TR/2001/REC-SVG-20010904/DTD/svg10.dtd"> <svg version="1.0" xmlns="http://www.w3.org/2000/svg" width="600.000000pt" height="200.000000pt" viewBox="0 0 600.000000 338.000000" preserveAspectRatio="xMidYMid meet"> <g transform="translate(0.000000,338.000000) scale(0.100000,-0.100000)" fill="#a3a3a3" stroke="none"> <path d="M1434 2861 c-2 -2 -4 -157 -4 -343 l0 -338 635 0 635 0 0 -135 c0 -101 -3 -135 -12 -136 -38 -5 -1050 2 -1140 8 l-108 6 0 -126 c0 -74 4 -127 10 -129 5 -1 340 -1 744 2 l735 5 3 370 3 370 -632 3 -633 2 0 100 0 100 624 0 624 0 7 116 c4 63 5 117 3 119 -6 6 -1488 11 -1494 6z"/> <path d="M4123 2863 c-25 -3 -33 -9 -33 -24 0 -14 7 -19 25 -19 l25 0 0 -100 0 -100 30 0 30 0 0 95 0 95 30 0 c25 0 30 4 30 25 0 22 -4 25 -39 25 -22 0 -45 2 -53 3 -7 2 -28 2 -45 0z"/> <path d="M4493 2862 c-21 -2 -33 -9 -33 -18 0 -27 -30 -74 -44 -68 -7 3 -19 23 -25 45 -12 38 -14 40 -49 37 l-37 -3 -11 -75 c-6 -41 -15 -94 -19 -117 -8 -43 -7 -43 23 -43 32 0 42 17 42 73 0 43 24 32 47 -23 12 -27 26 -50 32 -50 12 0 31 30 47 75 14 39 26 34 31 -12 5 -57 10 -63 43 -63 l32 0 -7 68 c-8 85 -24 171 -33 175 -4 1 -22 1 -39 -1z"/> <path d="M3060 2266 c0 -465 3 -595 13 -597 6 -2 344 -4 749 -4 l737 0 3 375 3 375 -537 3 -538 2 0 -120 0 -120 414 0 c386 0 415 -1 419 -17 4 -14 2 -222 -2 -256 -1 -4 -229 -6 -508 -5 l-508 3 0 355 0 355 360 0 360 0 3 123 3 122 -486 0 -485 0 0 -594z"/> <path d="M2290 1360 c0 -217 -5 -210 145 -210 105 0 105 0 105 25 0 24 -2 24 -92 27 l-93 3 0 100 0 100 88 3 87 3 0 29 0 30 -79 0 c-79 0 -79 0 -93 30 -10 23 -19 30 -40 30 l-28 0 0 -170z"/> <path d="M3257 1518 c-2 -8 -4 -84 -3 -171 2 -183 8 -197 83 -197 39 0 43 2 43 25 0 20 -5 25 -24 25 -43 0 -49 20 -42 143 4 61 8 128 9 147 2 32 0 35 -29 38 -20 2 -33 -2 -37 -10z"/> <path d="M1448 1475 c-11 -11 35 -95 78 -142 27 -29 104 -80 244 -161 113 -65 224 -131 248 -146 24 -15 53 -31 65 -37 12 -5 36 -18 52 -29 17 -11 37 -23 45 -27 8 -4 116 -66 240 -138 124 -72 232 -134 240 -138 25 -13 57 -32 71 -44 8 -6 46 -27 84 -48 57 -30 84 -38 145 -42 97 -7 134 4 250 73 52 30 129 74 170 97 41 22 136 76 210 120 74 44 144 83 155 88 11 5 34 17 50 28 60 36 443 257 548 315 96 54 165 129 183 200 l6 26 -336 0 -336 0 0 -143 c0 -137 -1 -143 -22 -156 -13 -8 -72 -43 -133 -78 l-110 -63 -612 0 c-337 0 -613 3 -613 8 0 4 -10 12 -23 18 -51 25 -202 117 -208 126 -4 6 -5 73 -2 149 l6 139 -165 0 c-91 0 -245 3 -344 6 -98 4 -182 3 -186 -1z"/> <path d="M2590 1448 c-20 -21 -21 -32 -18 -139 4 -158 5 -159 149 -159 104 0 108 1 128 26 18 23 21 41 21 139 0 104 -2 113 -23 133 -21 20 -34 22 -130 22 -97 0 -108 -2 -127 -22z m224 -64 c9 -23 7 -157 -3 -172 -5 -9 -31 -12 -92 -10 l-84 3 -3 84 c-2 46 -1 90 2 98 8 21 172 18 180 -3z"/> <path d="M2948 1463 c-25 -6 -38 -57 -38 -147 0 -87 12 -145 32 -158 7 -4 59 -8 115 -8 93 0 104 2 127 24 25 22 26 28 26 139 0 113 -1 116 -26 136 -23 18 -40 21 -123 20 -53 -1 -104 -3 -113 -6z m197 -158 l0 -100 -87 -3 -88 -3 0 106 0 106 88 -3 87 -3 0 -100z"/> <path d="M3443 1460 c-13 -5 -27 -25 -34 -49 -10 -34 -9 -44 5 -65 19 -30 64 -51 127 -60 64 -10 99 -26 99 -45 0 -36 -15 -42 -91 -39 -72 3 -74 4 -77 31 -3 23 -8 27 -34 27 -30 0 -31 -1 -25 -40 9 -66 16 -70 136 -70 126 1 143 9 147 72 1 27 -3 49 -12 59 -8 9 -54 27 -102 39 -96 26 -112 34 -112 60 0 24 20 30 95 30 57 0 64 -2 71 -22 8 -29 21 -37 45 -31 27 7 26 64 -2 89 -17 15 -39 19 -118 21 -53 2 -106 -2 -118 -7z"/> </g> </svg>