<?xml version="1.0" standalone="no"?> <!DOCTYPE svg PUBLIC "-//W3C//DTD SVG 20010904//EN" "http://www.w3.org/TR/2001/REC-SVG-20010904/DTD/svg10.dtd"> <svg version="1.0" xmlns="http://www.w3.org/2000/svg" width="470.000000pt" height="200.000000pt" viewBox="0 0 470.000000 200.000000" preserveAspectRatio="xMidYMid meet"> <g transform="translate(0.000000,200.000000) scale(0.100000,-0.100000)" fill="#a3a3a3" stroke="none"> <path d="M1150 1934 c0 -5 87 -105 174 -199 10 -11 95 -109 188 -217 l170 -198 369 0 c203 0 369 2 369 5 0 3 -94 106 -208 228 -115 122 -242 259 -283 304 l-74 82 -352 0 c-194 1 -353 -2 -353 -5z"/> <path d="M665 1429 c-247 -270 -481 -524 -518 -565 l-69 -74 374 0 375 0 164 187 c173 198 416 471 455 513 l23 25 -90 100 c-50 55 -129 146 -176 203 -47 56 -86 102 -87 102 -1 0 -203 -221 -451 -491z m313 -68 c-13 -15 -25 -27 -27 -25 -4 4 39 54 47 54 2 0 -7 -13 -20 -29z m-46 -53 c-7 -7 -12 -8 -12 -2 0 14 12 26 19 19 2 -3 -1 -11 -7 -17z m-22 -22 c0 -7 -17 -26 -37 -42 l-38 -28 28 33 c15 18 27 37 27 42 0 5 5 9 10 9 6 0 10 -6 10 -14z"/> <path d="M2457 1343 c-4 -3 -7 -10 -7 -15 0 -4 490 -8 1090 -8 962 0 1090 2 1090 15 0 16 -2158 24 -2173 8z"/> <path d="M3570 884 c-168 -190 -311 -354 -319 -365 -12 -17 -7 -26 55 -95 55 -61 147 -167 279 -322 2 -2 959 1035 1008 1094 l29 34 -374 0 -373 -1 -305 -345z m279 -96 c0 -7 -14 -24 -32 -38 l-32 -25 30 37 c33 42 35 44 34 26z m-87 -100 c-7 -7 -12 -8 -12 -2 0 14 12 26 19 19 2 -3 -1 -11 -7 -17z m-22 -22 c0 -8 -7 -16 -15 -20 -13 -4 -14 -2 -5 14 13 23 20 26 20 6z"/> <path d="M1490 1150 c0 -62 13 -77 40 -45 25 30 70 4 70 -41 0 -21 5 -24 35 -24 30 0 35 3 35 23 0 17 9 26 33 35 47 17 57 15 89 -15 28 -26 28 -26 28 -4 0 70 -71 121 -169 121 -33 0 -63 -4 -66 -10 -10 -15 -55 -12 -61 5 -15 39 -34 14 -34 -45z"/> <path d="M1232 1183 c-86 -42 -82 -159 6 -182 162 -44 152 -39 152 -71 0 -34 -23 -50 -72 -50 -38 0 -78 24 -78 46 0 10 -12 14 -40 14 -44 0 -45 -2 -29 -48 32 -93 238 -102 284 -12 40 77 0 140 -101 159 -73 14 -108 31 -113 56 -10 57 108 63 138 8 12 -24 81 -34 81 -13 0 88 -131 141 -228 93z"/> <path d="M1849 1198 c0 -1 -3 -87 -6 -190 l-5 -188 41 0 41 0 0 75 0 75 60 0 c71 0 80 -11 80 -94 l0 -56 46 0 c40 0 45 2 39 18 -4 9 -9 42 -12 72 -4 34 -13 63 -25 76 -17 19 -17 22 -3 28 22 8 45 68 39 102 -11 64 -41 79 -174 82 -66 2 -120 2 -121 0z m209 -80 c7 -7 12 -21 12 -32 0 -40 -16 -50 -84 -54 l-66 -4 0 51 0 51 63 0 c36 0 68 -5 75 -12z"/> <path d="M2220 1011 l0 -191 40 0 40 0 -2 188 -3 187 -37 3 -38 3 0 -190z"/> <path d="M2380 1010 l0 -192 104 4 c155 5 201 48 201 188 0 140 -45 183 -200 188 l-105 4 0 -192z m185 114 c46 -18 61 -142 25 -202 -19 -32 -23 -33 -75 -30 -30 2 -55 6 -55 11 0 4 0 57 0 117 l0 110 44 0 c24 0 52 -3 61 -6z"/> <path d="M2766 1104 l-56 -97 52 -93 52 -94 82 0 c45 0 95 -3 112 -6 32 -6 27 -13 129 166 14 24 12 31 -38 123 l-54 97 -111 0 -112 0 -56 -96z m237 -35 c30 -33 34 -66 12 -109 -55 -107 -217 -26 -171 85 28 67 107 79 159 24z"/> <path d="M3170 1010 l0 -190 41 0 41 0 -8 125 c-4 71 -3 125 2 125 5 0 41 -55 79 -123 61 -107 74 -122 99 -125 44 -5 45 1 47 193 l1 180 -36 3 -35 3 -3 -128 -3 -128 -74 128 -74 127 -38 0 -39 0 0 -190z"/> <path d="M1600 919 l0 -110 35 3 c20 2 35 6 35 11 0 4 0 52 0 107 l0 100 -35 0 -35 0 0 -111z"/> <path d="M70 685 c0 -13 124 -15 1088 -13 716 2 1087 6 1087 13 0 7 -371 11 -1087 13 -964 2 -1088 0 -1088 -13z"/> <path d="M2280 694 c0 -4 40 -48 88 -98 49 -50 178 -187 286 -304 l198 -212 356 0 356 0 -30 33 c-17 17 -41 43 -54 57 -34 38 -254 290 -362 415 l-95 110 -371 3 c-205 1 -372 -1 -372 -4z"/> <path d="M1270 552 c-57 -58 -29 -162 44 -162 17 0 37 5 44 12 9 9 12 8 12 -8 0 -11 -5 -25 -12 -32 -15 -15 -58 -16 -58 -2 0 6 -13 10 -30 10 -52 0 -22 -44 38 -56 82 -17 112 29 112 174 l0 82 -37 -1 c-21 -1 -48 2 -60 6 -17 5 -29 0 -53 -23z m92 -47 c8 -19 8 -31 0 -50 -24 -53 -83 -11 -68 49 9 36 52 36 68 1z"/> <path d="M1532 564 c-12 -8 -22 -10 -22 -5 0 6 -11 11 -25 11 -25 0 -25 -1 -25 -90 0 -89 0 -90 25 -90 23 0 25 3 25 51 0 60 13 89 40 89 15 0 20 7 20 25 0 29 -7 31 -38 9z"/> <path d="M1644 570 c-47 -19 -66 -77 -44 -134 28 -74 158 -59 173 21 15 81 -55 143 -129 113z m78 -67 c8 -34 -7 -68 -32 -71 -47 -7 -69 64 -28 92 24 17 53 7 60 -21z"/> <path d="M2117 573 c-4 -3 -25 -6 -47 -5 l-40 2 -1 -115 c-1 -63 -2 -121 -3 -127 -1 -7 11 -14 27 -16 26 -3 27 -1 27 41 0 42 1 44 25 39 87 -16 138 87 77 156 -19 22 -55 36 -65 25z m33 -68 c19 -51 -24 -97 -58 -63 -13 13 -16 47 -6 72 10 26 53 20 64 -9z"/> <path d="M1810 502 c0 -98 35 -137 94 -106 14 7 26 9 26 3 0 -5 11 -9 25 -9 25 0 25 1 25 90 0 89 0 90 -25 90 -23 0 -24 -3 -27 -67 -3 -63 -5 -68 -27 -71 -32 -5 -41 12 -41 81 0 54 -1 57 -25 57 -24 0 -25 -2 -25 -68z"/> </g> </svg>