<svg width="50" height="50" xmlns="http://www.w3.org/2000/svg" zoomAndPan="magnify" viewBox="0 0 810 810" preserveAspectRatio="xMidYMid meet" xmlns:v="https://vecta.io/nano"><path fill="#fff" d="M-81-81h972v972H-81z"/><path d="M0 406.328v406.328h137.609l-22.754-22.395c-13.004-12.82-22.754-24.02-22.754-25.824 0-1.984-.902-4.332-1.988-5.418-2.348-2.348-2.348-27.809 0-29.437.902-.539 1.988-2.707 2.711-5.055.723-2.168 2.168-3.973 3.07-3.973s1.625-.723 1.625-1.805c0-2.711 52.91-57.973 58.328-60.859 2.891-1.445 2.348-2.348-3.609-7.227-8.309-6.5-22.215-26.363-22.215-31.238 0-1.988-.723-3.613-1.805-3.613-.902 0-1.805-1.445-1.805-3.25s-.723-3.973-1.625-4.879c-.902-1.082-2.348-9.207-3.434-18.059-1.625-12.82-1.445-19.863.543-33.406 3.43-23.66 4.695-28.895 6.5-28.895.902 0 1.625-1.625 1.625-3.613s.723-5.055 1.809-6.863c.902-1.625 3.07-6.32 4.695-10.293 1.805-3.973 3.609-7.586 4.332-8.125.543-.543 2.527-4.156 4.516-7.945 3.25-6.684 6.141-10.836 10.836-16.254 3.793-4.156 11.738-22.031 11.738-26.008 0-2.164.902-3.973 1.805-3.973 1.086 0 1.809-1.262 1.809-2.707 0-3.793 5.957-17.156 7.582-17.156.902 0 1.445-1.266 1.445-2.707s.723-2.711 1.625-2.711 2.348-1.625 2.891-3.793c1.262-3.609 27.992-31.242 49.66-51.105l37.926-35.578 67.723-63.93 35.031-33.406 33.59-31.605c8.668-7.945 26.188-24.559 38.828-37.02 12.461-12.461 31.242-30.699 41.715-40.453l46.234-44.785c14.988-14.629 27.809-26.727 28.352-26.727 1.984 0 51.648-48.039 51.648-49.844C615.813.359 477.301 0 307.906 0H0zM712.066 4.516c-2.348 2.348-4.152 4.875-4.152 5.418s-3.07 4.332-6.684 8.305c-3.793 4.156-8.488 9.391-10.473 11.922a182.64 182.64 0 0 1-8.852 10.293c-2.891 3.07-8.125 9.211-11.738 13.723s-8.484 10.113-11.016 12.641-6.859 7.766-9.75 11.742c-3.07 3.973-8.129 9.75-11.379 13-3.25 3.07-5.957 6.141-5.957 6.684 0 1.262-6.141 8.488-12.102 14.809-2.348 2.348-4.152 4.695-4.152 5.418 0 .539-3.07 4.152-6.684 7.945-3.793 3.793-8.488 9.211-10.473 11.918s-7.043 8.848-11.379 13.543c-4.152 4.516-9.391 10.836-11.555 13.547-2.168 2.887-5.238 6.5-6.863 7.945-2.348 2.348-14.988 16.977-24.562 28.531-11.016 13.363-24.559 29.258-28.711 33.59-1.988 2.168-5.961 7.043-8.852 11.016s-8.125 9.934-11.375 13.184-5.961 6.32-5.961 6.684c0 1.082-6.5 8.848-12.098 14.629-2.348 2.348-4.156 4.695-4.156 5.234s-3.25 4.516-7.043 8.668c-3.973 4.156-9.027 9.934-11.195 13.004-2.348 2.891-5.418 6.68-7.043 8.125s-5.961 6.684-9.934 11.738c-3.973 4.879-9.207 11.016-11.738 13.727-2.527 2.527-6.141 6.863-8.125 9.57s-5.598 7.223-8.129 10.113c-8.305 9.211-20.043 22.934-24.016 27.992-2.168 2.891-6.863 8.309-10.477 12.098s-8.848 9.934-11.738 13.547c-2.707 3.793-6.32 8.125-7.945 9.57-1.445 1.445-5.238 5.598-8.125 9.211l-12.641 15.168a668.02 668.02 0 0 1-14.449 16.434c-3.972 4.332-8.848 10.113-10.836 12.824-5.957 8.305-29.254 30.879-33.227 32.145-2.168.539-3.793 1.984-3.793 2.887s-1.266 1.629-2.711 1.629-2.707.719-2.707 1.441c0 1.809-11.738 7.586-15.168 7.586-2.531 0-10.113 8.125-10.113 10.836 0 1.082-.723 1.805-1.445 1.805-1.988 0-11.199 18.242-11.199 22.215 0 1.625-.719 3.07-1.805 3.07-.902 0-1.805 3.609-1.805 7.945 0 7.945 0 7.945 7.043 9.211 8.488 1.441 27.27-.543 27.27-2.891 0-.902 1.625-1.625 3.43-1.625 1.988 0 4.152-.902 4.695-1.809.543-1.082 2.711-1.805 4.695-1.805 1.805 0 3.434-.543 3.434-1.445 0-.723 3.609-2.887 8.125-4.875s8.125-4.152 8.125-4.875c0-.902.902-1.445 1.988-1.445 1.805 0 12.461-7.406 17.516-12.102 1.266-1.262 3.07-2.348 3.793-2.348s5.781-3.973 11.195-9.027c5.238-4.875 10.297-9.031 11.199-9.031.723 0 1.262-.723 1.262-1.625s7.766-9.57 17.34-19.32c9.57-9.934 20.223-21.492 23.836-26.008 3.793-4.512 10.293-11.918 14.809-16.434 4.516-4.695 10.473-11.375 13.363-15.168 5.598-7.043 15.891-18.602 22.031-25.102l3.613-3.793-5.059-9.754c-3.789-7.223-5.055-12.098-5.055-19.863 0-9.75 3.07-20.047 5.961-20.047.723 0 1.262-1.082 1.262-2.527s5.961-8.848 13.363-16.434c7.227-7.402 20.406-21.309 29.078-30.699s16.793-17.156 18.238-17.156c1.262 0 5.238-1.625 8.848-3.613s9.754-3.609 14.086-3.609c7.766 0 17.52 3.25 17.52 5.777 0 .902 1.441 1.445 3.25 1.445 3.43 0 6.32 2.527 48.215 42.438l37.746 35.578c5.957 5.234 17.695 16.434 26.363 24.922s23.297 22.391 32.688 30.879l31.605 29.797 33.949 32.328 28.895 27.086 36.48 33.41c.359 0 .723-125.512.723-279.012V0l-48.219.18h-48.398zM541.77 130.023l-48.578 46.773c-9.211 8.488-27.629 26.004-40.812 39.008l-41.719 39.73-33.406 31.602-27.27 26.008-71.875 67.902c-9.57 9.391-22.395 21.488-28.172 26.727-20.949 18.961-23.297 21.309-28.715 28.352-2.891 3.973-5.961 7.402-6.684 7.766s-1.441 2.168-1.441 4.152c0 1.809-.723 3.434-1.809 3.434-.902 0-1.805 1.984-1.805 4.512s-.723 4.516-1.805 4.516c-.902 0-1.809 3.793-1.809 8.668 0 6.32-1.082 9.754-4.152 13.004-9.57 10.656-16.613 21.672-27.449 42.438-9.57 18.242-12.461 30.52-12.461 50.566 0 16.07.543 19.141 4.875 27.992 6.141 12.277 7.586 13.906 16.617 20.586 3.973 3.07 7.582 5.961 8.125 6.5s5.418 3.254 10.836 5.781c23.656 11.375 52.371 10.836 81.805-1.625 12.645-5.418 11.199-2.891-13.723 22.574-8.488 8.668-9.031 7.402 8.309 16.973 5.598 3.25 10.293 6.504 10.293 7.227 0 .902 1.262 1.441 2.707 1.441 1.625 0 7.406 2.891 12.824 6.32s10.652 6.324 11.555 6.324c1.086 0 1.809.719 1.809 1.441s2.164 2.348 5.055 3.434c4.875 2.168 14.809 7.766 16.613 9.57.543.543 4.156 2.527 8.129 4.516s7.582 4.152 7.766 4.875c.359.902 1.805 1.445 3.25 1.445s2.527.543 2.527 1.445c0 .723 3.613 2.887 8.129 4.875s8.125 4.152 8.125 4.875c0 .902.723 1.445 1.805 1.445.902 0 6.141 2.891 11.559 6.32s11.195 6.32 12.641 6.32 2.891.723 3.25 1.625 9.574 6.684 20.406 12.824c11.02 6.32 20.227 11.738 20.77 12.461.543.539 5.598 3.43 11.379 6.32 5.598 2.887 10.293 5.777 10.293 6.68s1.625 1.625 3.609 1.625 3.613.723 3.613 1.809c0 .902 1.082 1.805 2.527 1.805s3.793 1.082 5.059 2.168c1.262 1.262 4.875 3.609 7.766 5.055 3.07 1.445 5.777 3.07 6.32 3.613s4.332 2.527 8.488 4.516c4.332 1.984 7.762 4.152 7.762 4.875 0 1.984 41.176 1.805 41.898-.18.363-.902 4.516-5.781 9.211-10.836 9.027-9.57 10.113-14.988 3.43-16.977-3.07-1.082-21.309-11.195-24.738-13.906-.906-.723-5.418-3.43-9.934-5.957-4.516-2.348-12.102-6.684-17.156-9.574-4.875-2.707-9.391-5.598-9.934-6.137s-3.973-2.711-7.766-4.695c-13.184-6.504-13.902-7.043-13.902-8.309 0-.902-1.629-1.445-3.613-1.445s-3.613-.543-3.613-1.445c0-1.262-5.418-4.516-11.195-6.863-1.805-.539-3.25-1.805-3.25-2.707s-1.625-1.625-3.613-1.625-3.609-.543-3.609-1.445c0-.723-1.629-2.168-3.434-3.07-1.984-1.082-6.5-3.43-10.473-5.418-3.793-1.805-7.945-4.516-9.211-5.777-1.266-1.086-5.055-3.07-8.488-4.336s-6.32-3.07-6.32-3.793-1.266-1.441-2.707-1.441-2.711-.906-2.711-1.809c0-1.082-.902-1.805-1.805-1.805-1.086 0-5.238-1.988-9.211-4.695-7.043-4.336-9.211-5.598-27.27-15.711-4.516-2.527-11.559-6.684-15.711-9.211-3.973-2.527-8.125-4.695-9.211-4.695-.902 0-1.805-.723-1.805-1.625s-1.445-1.988-3.25-2.527c-3.25-1.086-16.977-8.668-18.422-10.477-.539-.539-3.793-2.348-7.223-3.973-18.238-9.027-18.961-10.293-8.309-16.613 17.699-10.473 18.965-10.836 23.117-8.309l12.098 7.043c4.516 2.531 8.668 5.238 8.852 6.141.359.723 2.164 1.445 4.152 1.445 1.805 0 3.43.723 3.43 1.625s1.445 1.988 3.254 2.527c3.07 1.086 16.793 8.668 18.418 10.297.723.719 7.043 4.332 17.156 9.75 1.988 1.082 3.973 2.348 4.516 2.891.723.723 7.043 4.332 17.156 9.75 1.984 1.086 3.973 2.348 4.516 2.891.723.723 7.043 4.332 17.156 9.75 1.984 1.086 3.973 2.348 4.512 2.891s2.531 1.805 4.516 2.891l31.605 17.879 19.863 11.375c4.516 2.527 8.488 5.059 9.027 5.598.543.723 5.602 3.434 11.379 6.504 5.598 2.887 10.293 5.957 10.293 6.68s1.625 1.445 3.613 1.445 3.609.543 3.609 1.445c0 1.266.723 1.805 13.906 8.309 3.793 1.984 7.227 3.973 7.766 4.512.723.902 6.504 4.336 17.156 9.934 1.988 1.082 3.973 2.348 4.516 2.891s3.07 1.984 5.777 3.43c4.695 2.348 5.059 2.168 22.035-15.352 9.57-9.93 16.973-18.781 16.793-19.684-.359-1.082-2.348-2.527-4.516-3.609-2.168-.902-3.973-2.348-3.973-3.07 0-.902-1.625-1.445-3.43-1.445-1.988 0-3.793-.723-4.156-1.445-.539-1.445-9.75-7.043-32.145-19.863l-18.059-10.297-19.863-11.375c-4.516-2.527-8.488-5.059-9.031-5.777s-3.609-2.348-6.68-3.793c-3.25-1.445-5.961-3.07-5.961-3.613 0-.723-1.984-1.805-4.516-2.348-2.527-.723-4.516-1.984-4.516-2.891 0-1.082-1.625-1.805-3.609-1.805s-3.613-.902-3.613-1.805c0-1.086-1.262-1.809-2.707-1.809s-2.711-.723-2.711-1.441c0-.906-3.43-2.891-7.582-4.879-4.336-1.805-8.129-3.793-8.668-4.332-1.445-1.809-11.379-7.586-16.617-9.754-2.887-1.082-5.055-2.707-5.055-3.43s-.902-1.445-1.809-1.445c-1.082 0-5.234-1.984-9.207-4.695-3.973-2.527-9.934-5.961-13.004-7.766-31.602-17.879-40.09-22.934-40.633-24.02-.359-.902-1.805-1.441-3.25-1.441s-2.527-.543-2.527-1.445c0-.723-3.613-2.711-8.129-4.516-4.512-1.988-8.125-4.516-8.125-5.961 0-3.793 10.293-13.363 14.629-13.363 1.805 0 6.68 1.988 10.652 4.516s7.945 4.516 9.031 4.516c.902 0 1.805.723 1.805 1.805 0 .902 1.082 1.805 2.527 1.805s2.891.543 3.254 1.266c.359.902 3.789 3.07 7.762 5.055s7.586 3.977 8.129 4.516c.723.723 6.863 4.336 17.156 9.754 1.984 1.082 3.973 2.348 4.516 2.887 1.805 1.809 11.738 7.586 16.793 9.574 2.711 1.082 4.875 2.707 4.875 3.43s1.625 1.445 3.434 1.445c1.984 0 3.793.723 4.152 1.625s9.57 6.684 20.406 12.82l30.699 17.699 18.965 10.836c4.512 2.527 8.488 5.055 9.027 5.598s3.434 2.348 6.32 3.793c3.07 1.445 5.781 3.07 6.32 3.613s4.336 2.527 8.488 4.512c4.336 1.988 7.766 4.156 7.766 4.879 0 .902 1.086 1.441 2.527 1.441s2.891.543 3.254 1.266c.359.902 3.789 3.07 7.762 5.055s7.586 3.977 8.129 4.516c1.082 1.086 7.402 4.695 15.352 8.852 2.887 1.625 5.777 3.25 6.32 3.789s3.07 1.988 5.777 3.434c4.875 2.527 5.055 2.348 22.211-15.172 9.391-9.93 16.977-18.781 16.617-19.684-.363-1.082-2.348-2.707-4.516-3.793-2.168-.902-3.973-2.348-3.973-3.07 0-.902-.902-1.441-1.805-1.441-1.086 0-6.504-2.891-11.922-6.32s-10.113-6.324-10.473-6.324c-.543 0-9.031-4.875-19.145-10.832s-19.141-10.836-20.043-10.836-1.625-.902-1.625-1.809c0-1.082-1.266-1.805-2.711-1.805s-2.707-.723-2.707-1.445-2.891-2.527-6.32-3.793-7.227-3.25-8.488-4.332c-1.266-1.266-5.418-3.973-9.211-5.781l-10.473-5.418c-1.809-.902-3.434-2.348-3.434-3.066 0-.906-1.625-1.445-3.609-1.445s-3.613-.543-3.613-1.445c0-1.266-5.418-4.516-11.195-6.863-1.809-.543-3.254-1.805-3.254-2.707s-1.625-1.625-3.609-1.625-3.613-.543-3.613-1.445c0-1.266-.723-1.809-13.906-8.309-3.789-1.984-7.223-4.152-7.766-4.695s-4.875-3.43-9.93-6.141c-4.875-2.887-12.641-7.223-17.156-9.57-4.516-2.527-8.848-5.238-9.934-5.961-3.43-2.707-21.672-12.82-24.742-13.902-1.805-.543-3.25-1.629-3.25-2.531s-1.262-1.625-2.707-1.625-2.711-.539-2.711-1.445c0-.723-3.609-2.887-8.125-4.875s-8.12-4.163-8.12-4.886c0-.902-.906-1.445-1.809-1.445-1.082 0-5.055-1.984-9.027-4.516-11.379-7.223-10.477-7.582-33.953 18.242l-12.641 14.266c-1.625 1.984-8.309 8.125-14.809 13.543l-15.168 13.004c-1.988 1.805-4.156 3.25-4.875 3.25-.906 0-3.254 1.805-5.602 4.152-2.348 2.168-7.043 5.418-10.473 7.227-7.223 3.609-13.184 7.043-14.449 8.668-1.082 1.262-21.309 10.473-35.215 16.07-7.945 3.25-26.184 5.781-35.395 4.875-13.723-1.441-21.488-3.25-21.488-5.055 0-.902-1.266-1.625-3.07-1.625-2.531 0-13.004-6.863-17.699-11.738-5.961-6.141-10.293-17.699-10.113-27.09.363-10.473 2.527-24.379 3.793-24.379.723 0 1.805-2.348 2.348-5.238 1.266-6.5 8.668-22.574 10.656-23.293.723-.363 1.441-1.445 1.441-2.531 0-.902 1.988-4.332 4.516-7.582s4.516-6.863 4.516-7.949.543-2.164 1.445-2.527c.723-.359 3.609-3.609 6.32-7.402 2.891-3.793 6.684-6.684 8.668-6.684 3.793 0 19.145-6.68 22.574-9.934 1.266-.902 4.332-3.43 7.223-5.414 6.32-4.516 7.406-5.602 17.156-17.156 4.336-5.238 9.754-11.379 12.102-13.727 2.164-2.348 3.973-4.695 3.973-5.238s2.887-3.973 6.5-7.582c3.613-3.793 8.668-9.754 11.195-13.184 2.711-3.434 6.141-7.586 7.586-9.031s7.223-7.945 12.641-14.445a511.84 511.84 0 0 1 13.547-15.531c1.984-2.168 6.137-7.043 9.391-10.836 3.25-3.973 8.125-9.57 10.832-12.641a356.18 356.18 0 0 0 10.113-12.102c5.602-7.043 14.809-17.695 24.199-27.992 3.25-3.609 5.961-7.043 5.961-7.762s2.168-3.613 5.055-6.504c7.586-8.305 17.699-19.863 23.297-27.086a360.52 360.52 0 0 1 10.113-12.102c2.711-3.07 7.586-8.668 10.836-12.641l9.391-10.836c1.988-1.984 6.141-7.043 9.031-11.016 3.07-3.973 8.125-9.75 11.375-12.82 3.07-3.254 5.781-6.324 5.781-7.043 0-.543 1.082-2.168 2.348-3.434 1.082-1.445 5.777-6.68 10.293-11.918l12.641-14.449c2.527-2.887 6.141-7.223 8.125-10.113 1.988-2.707 5.961-7.402 8.852-10.473s8.125-9.211 11.738-13.723 8.125-9.754 10.113-11.922c1.984-1.984 5.234-5.957 7.223-8.668 1.984-2.887 6.68-8.305 10.473-12.098 3.793-3.973 6.684-7.945 6.32-9.031s-14.809 11.918-32.145 29.074zM267.094 426.012c2.887 1.805 1.625 16.797-1.445 17.879-1.086.359-1.988 1.445-1.988 2.348 0 3.07-15.348 19.684-18.059 19.684-1.082 0-1.805-1.805-1.805-4.152 0-5.598-1.805-7.766-8.668-10.477l-5.961-2.527 7.945-8.305c7.227-7.406 21.129-16.074 25.645-16.074 1.086 0 2.891.723 4.336 1.625zm222.304-63.028c-12.461 12.824-22.934 24.742-23.113 26.188-.363 1.625 1.441 4.695 3.789 6.863 18.602 16.25 27.633 24.559 46.234 42.797 11.555 11.379 27.086 26.008 34.309 32.508 7.406 6.5 22.574 20.949 33.953 31.965 11.375 11.195 21.129 20.406 21.488 20.406.543 0 4.695 3.793 9.574 8.488 4.695 4.875 17.336 16.793 27.988 26.727l35.219 33.41c8.668 8.488 23.836 22.574 33.59 31.602 9.75 8.852 22.934 21.492 29.434 27.813l11.918 11.559 7.949-8.852 24.918-26.363 16.617-17.34-25.285-24.199-34.672-33.047-27.09-25.824-18.059-16.613c-.359 0-10.113-9.211-21.488-20.406l-33.23-31.422c-7.043-6.141-22.391-20.77-34.492-32.508-11.918-11.738-24.922-23.84-28.715-27.09-3.789-3.07-15.891-14.445-27.086-25.281-29.797-29.074-36.48-34.855-38.828-34.855-1.266 0-12.461 10.656-24.922 23.477zm-20.406 83.797c-8.125 8.125-20.77 21.488-27.992 29.434l-13.184 14.629 5.418 3.793c2.891 2.168 5.781 3.793 6.32 3.793s5.418 2.887 10.836 6.32 10.836 6.32 11.918 6.32c.906 0 1.809.723 1.809 1.445s2.168 2.348 5.055 3.43c4.879 2.168 14.809 7.766 16.617 9.57.539.543 4.152 2.531 8.125 4.516s7.586 4.152 7.766 4.875c.359.906 1.805 1.445 3.25 1.445s2.527.543 2.527 1.266c0 .902 3.434 3.07 7.766 5.055 4.156 1.988 7.945 3.973 8.488 4.516s3.43 2.168 6.32 3.613c3.07 1.445 5.781 3.25 6.32 3.793s4.516 3.066 9.031 5.598l18.961 10.836 30.699 17.695c11.016 6.141 20.227 11.918 20.406 12.824.363.902 2.168 1.625 4.156 1.625 1.805 0 3.43.723 3.43 1.625s1.445 1.984 3.25 2.527c3.07 1.082 16.797 8.668 18.422 10.293.723.723 7.043 4.336 17.156 9.754 1.984 1.082 3.973 2.348 4.516 2.887s4.152 2.531 8.125 4.516 7.586 4.152 7.766 4.875c.359.906 1.805 1.445 3.07 1.445s2.707.543 3.07 1.266c1.082 2.527 14.988 9.211 17.336 8.305 4.695-1.805 1.805-6.68-10.836-18.238l-28.715-27.449c-8.668-8.488-23.656-22.754-33.406-31.602l-27.992-26.73c-5.781-5.598-10.836-10.293-11.379-10.293-.359 0-10.113-9.211-21.488-20.406l-33.953-31.965c-7.223-6.5-22.391-20.766-33.77-31.965L483.8 431.79zM796.039 679.02c-8.668 8.848-16.973 16.254-18.418 16.254-1.625 0-2.891.719-2.891 1.805 0 .902-1.625 1.805-3.43 1.805-1.988 0-4.152.723-4.695 1.805-.543.906-6.32 1.809-12.461 1.809-9.934 0-13.004-.902-22.031-6.32l-10.477-6.32-2.164 5.055c-1.086 2.891-7.227 10.473-13.547 17.156l-19.684 20.586c-4.516 4.879-9.75 9.934-11.918 11.379-1.988 1.445-5.238 5.055-7.223 8.125-1.809 2.891-8.672 10.836-15.172 17.34-13.723 13.902-36.84 39.367-37.562 41.715-.359.723 44.063 1.445 98.781 1.445h99.508v-74.945l-.543-74.945c-.18 0-7.586 7.223-16.074 16.254zm-557.66 11.375c-1.445 1.266-6.684 6.684-11.379 12.281l-8.484 10.113 25.102 24.02c22.934 21.852 38.645 34.313 43.52 34.313.906 0 1.809.539 1.809 1.441 0 .723 3.07 2.711 6.859 4.516 6.684 3.07 13.004 6.684 14.809 8.488 1.625 1.625 15.352 9.211 18.602 10.293 1.625.543 3.07 1.625 3.07 2.527s1.625 1.629 3.434 1.629c1.984 0 3.789.719 4.152 1.441.359.906 4.516 3.793 9.211 6.324l8.668 4.875h49.48c27.27 0 49.664-.543 49.664-1.445 0-.723-3.613-2.711-8.129-4.516-4.516-1.984-8.125-4.152-8.125-5.055s-1.266-1.625-2.711-1.625-2.707-.906-2.707-1.809c0-1.082-1.266-1.805-2.711-1.805-2.527 0-11.016-4.516-13.543-7.223-.543-.543-3.25-2.168-6.32-3.613-2.891-1.445-6.5-3.793-7.766-5.055-1.266-1.086-3.613-2.168-5.055-2.168s-2.531-.902-2.531-1.805c0-1.086-1.625-1.809-3.609-1.809s-3.613-.902-3.613-1.805c0-1.082-1.266-1.805-2.707-1.805s-2.711-.723-2.711-1.445c0-.902-3.43-2.891-7.586-4.875-4.332-1.809-8.125-3.793-8.668-4.336-1.082-1.445-23.477-14.629-24.559-14.629-.543 0-5.418-2.887-10.836-6.32s-10.293-6.32-10.836-6.32-5.418-2.891-10.836-6.32-10.652-6.32-11.555-6.32c-1.086 0-1.809-.543-1.809-1.445 0-.723-3.609-2.891-8.125-4.875s-8.129-4.152-8.129-4.875c0-.906-1.262-1.445-2.707-1.445s-2.707-.543-2.707-1.445c0-.723-3.613-2.891-8.129-4.875s-8.125-3.973-8.125-4.516c0-.723-2.891-2.168-6.32-3.613s-6.32-3.07-6.32-3.973c0-2.168-5.961-1.625-9.031.902zm-77.836 20.949l-23.836 25.465-8.848 9.57 22.391 21.852c12.281 12.098 27.992 26.906 34.855 33.047l12.281 11.379h52.008c28.715 0 52.191-.543 52.012-1.445 0-.723-5.781-6.141-12.645-12.102-7.043-5.957-22.754-20.586-35.031-32.504l-38.105-36.117c-8.668-7.949-20.586-19.145-26.187-24.922-5.777-5.598-11.195-10.293-12.098-10.293-.723 0-8.309 7.223-16.797 16.07zm0 0" fill="#ff2618"/></svg>