<svg width="50" height="50" xmlns="http://www.w3.org/2000/svg" zoomAndPan="magnify" viewBox="0 0 810 810" preserveAspectRatio="xMidYMid meet" fill="#ff7000" xmlns:v="https://vecta.io/nano"><path d="M385.602 40.992C194.871 54.57 44.223 214.914 42.93 406.938c0 54.313 5.82 62.07 40.086 55.605 15.52-2.59 29.098-5.176 31.035-5.82 1.941 0 1.941-17.457 1.293-38.148-7.758-133.836 80.82-257.973 210.129-295.473 67.887-20.043 179.742-6.465 226.938 27.156l15.52 10.344-31.035 31.684c-16.809 17.457-29.742 32.324-27.801 33.617 1.938 1.941 89.223 18.75 176.508 34.27l25.215 4.523-4.527-34.91-8.402-64.012c-1.293-16.16-5.82-46.551-9.055-67.887s-5.816-41.379-5.816-45.258c0-3.234-14.227 7.758-31.035 24.57l-31.035 30.387-37.5-20.043c-61.422-33.621-135.129-50.43-197.844-46.551zm355.601 303.879c-46.551 6.465-45.258 5.172-43.965 49.137 1.941 55.602-5.82 91.164-29.094 140.301-40.086 83.406-126.078 147.414-217.242 160.992-65.301 10.344-145.473-4.527-193.965-35.562l-14.871-10.344 31.035-31.68c16.813-17.457 29.742-32.328 27.801-33.621-1.937-1.941-91.16-19.398-175.215-34.27-29.094-5.172-28.445-13.578-11.637 107.328l12.93 99.57c0 3.879 14.227-7.113 31.035-23.922l31.035-30.391 35.559 19.398C282.8 754.135 335.816 767.709 405 767.709c104.738 0 181.68-32.324 256.031-106.68 50.43-50.43 79.527-100.215 96.336-166.164 11.637-43.965 14.871-139.652 5.82-147.41-3.234-2.586-12.934-3.879-21.984-2.586zm0 0"/></svg>