<svg width="50" height="50" xmlns="http://www.w3.org/2000/svg" zoomAndPan="magnify" viewBox="0 0 810 810" preserveAspectRatio="xMidYMid meet" xmlns:v="https://vecta.io/nano"><g fill="#cfd8dc"><path d="M378.914 173.813c-31.82-47.715-38.695-111.488-40.195-137.695-80.824 17.477-161.117 48.828-156.48 71.918.586 2.902 4.246 6.391 10.328 9.781l-9.512 17.008c-11.609-6.508-18.137-14.008-19.91-22.973-5.242-26.129 24.355-49.762 90.445-72.266 45.125-15.375 90.641-24.551 92.57-24.922l11.633-2.336V24.23c0 .82.508 83.551 37.332 138.789zm32.481 618.101h-4.891c-159.617 0-337.254-50.133-358.242-134.031-12.801-51.242 29.074-107.867 121.078-163.687l10.133 16.641c-82.789 50.25-122.676 100.77-112.289 142.332C85.402 726 253.746 771.398 401.398 772.41c17.555-26.242 111.879-180.422 58.043-387.211l18.844-4.91c61.355 235.605-62.703 405.996-63.949 407.691zm0 0"/><path d="M122.637 719.941c-10.504 0-15.707-1.152-16.562-1.363a9.72 9.72 0 0 1-7.055-6.859c-.953-3.391.02-7.035 2.516-9.508 1.402-1.402 140.227-140.445 158.973-252.871l19.211 3.195c-16.113 96.723-111.352 206.984-149.172 247.59 37.781-2.164 133.176-19.855 316.309-122.363-142.918-15.664-165.52-130.078-165.754-131.305l19.152-3.527c.918 4.793 23.891 117.121 180.113 117.121h.156c4.426 0 8.262 2.961 9.395 7.211 1.168 4.246-.703 8.746-4.504 10.969-218.906 126.824-325.059 141.691-362.777 141.711zm0 0"/><path d="M212.129 766.586a9.72 9.72 0 0 1-9.121-6.332c-1.539-4.113-.137-8.77 3.449-11.34.664-.488 35.324-26.07 72.211-82.379-14.187-6.273-28.547-13.602-42.789-22.156-17.301-10.383-30.375-21.527-40.137-32.945-50.074 13.207-96.293 18.43-136.879 14.98l1.637-19.406c36.551 3.098 78.113-1.227 123.16-12.469-30.648-52.375-2.512-104.359-2.125-105.059l17.031 9.488c-1.305 2.375-24.648 46.176 4.852 90.27 42.887-12.312 88.633-30.531 135.98-54.203 10.891-35.754 19.406-76.418 23.867-122.285.313-3.137 2.105-5.922 4.836-7.5s6.059-1.715 8.922-.41c.625.293 63.598 29.051 109.191 47.813a9.76 9.76 0 0 1 5.98 8.008c.391 3.566-1.227 7.035-4.207 9.063-44.602 30.395-88.91 56.758-132.066 78.754-13.68 43.355-30.609 79.438-47.91 108.938 72.129 26.949 134.734 27.355 135.531 27.355a9.74 9.74 0 0 1 9.43 7.309c1.11 4.305-.816 8.809-4.695 10.969-88.457 49.141-229.273 62.973-235.215 63.539-.312-.02-.625 0-.934 0zm85.437-92.219c-20.266 31.445-40.176 54.031-55.062 68.777 38.93-5.727 107.184-18.273 163.824-41.676-27.121-3.332-66.383-10.734-108.762-27.102zm-80.703-68.898c7.656 7.641 17.203 15.102 29.031 22.215 14.34 8.609 28.895 15.918 43.254 22.113 14.691-24.629 29.246-54.187 41.734-89.004-39.375 18.742-77.605 33.707-114.02 44.676zm164.348-177.348c-3.992 34.449-10.148 65.879-17.789 94.5 32.344-17.242 65.352-36.941 98.633-58.957l-80.844-35.543zm-102.836-267.5a9.82 9.82 0 0 1-6.332-2.336c-31.371-26.852-68.293-81.484-69.852-83.805-2.516-3.719-2.125-8.687.895-12 3-3.332 7.949-4.113 11.848-1.988.215.059 18.277 7.5 140.617 27.883 3.527.582 6.43 3.039 7.602 6.391 1.188 3.352.426 7.09-1.949 9.742-34.254 38.051-77.527 54.809-79.359 55.492a10.36 10.36 0 0 1-3.469.621zm-44.367-75.094c12.297 16.543 30.008 38.895 46.219 53.953 9.957-4.539 32.285-15.937 53.465-35.031-50.328-8.594-81.035-14.711-99.684-18.922zm0 0"/></g><g fill="#b71c1c"><path d="M354.734 429.508a9.79 9.79 0 0 1-3.918-.82c-3.875-1.715-6.215-5.727-5.766-9.937 5.688-53.562-76.496-75.055-77.336-75.246-3.391-.859-6.078-3.488-6.992-6.859a9.78 9.78 0 0 1 2.512-9.469c4.035-4.035 100.129-99.332 220.699-151.668 3.371-1.461 7.191-.914 10.035 1.363 2.824 2.301 4.129 5.984 3.391 9.527C474.25 298.316 366.617 421.07 362.059 426.234c-1.93 2.121-4.617 3.273-7.324 3.273zm-66.016-99.664c23.07 8.672 63.48 28.738 73.711 65.391 28.234-35.23 88.5-116.383 111.004-193.559-85.48 41.113-157.453 103.109-184.715 128.168zm0 0"/><path d="M183.973 506.664l-9.254-17.145c36.688-19.777 78.715-56.176 113.145-98.477-29.305 20.07-46.082 33.809-46.605 34.254l-12.453-15.004c.762-.621 34.371-28.191 90.234-62.738 15.332-24.668 27.121-50.035 33.18-74.352 1.035-4.133 1.93-8.125 2.652-11.984-37.508-13.383-72.113-21.316-95.883-24.723a9.73 9.73 0 0 1-7.812-6.395c-1.211-3.406-.41-7.227 2.023-9.875 1.656-1.793 41.23-44.191 90.68-67.477 3.84-1.812 8.438-.914 11.32 2.223 1.309 1.422 28.059 31.465 21.258 93.621 22.508 8.77 45.691 19.426 68.02 32.109 53.758-24.16 114.805-45.902 179.824-59.035 3.352-.664 7.07.543 9.371 3.273a9.78 9.78 0 0 1 1.617 9.801c-25.328 64.922-93.254 134.266-96.137 137.188-1.969 1.988-4.656 2.98-7.461 2.883a9.82 9.82 0 0 1-7.113-3.66c-21.82-27.437-50.348-50.156-81.113-68.645-42.379 19.563-79.906 40.488-110.75 59.406-39.355 61.434-98.766 117.844-148.742 144.75zm280.828-213.625c25.137 16.211 48.535 35.266 67.883 57.438 16.133-17.496 54.848-61.727 76.809-105.645-51.633 11.887-100.5 29.09-144.691 48.207zm-91.441-24.824c-.641 3.176-1.383 6.43-2.199 9.742-4.094 16.348-10.602 33.145-18.941 49.898 21.355-12.195 44.992-24.785 70.496-36.98-16.328-8.652-32.988-16.172-49.355-22.66zm-92.57-47.738c21.648 4.25 48.324 11.184 76.789 21.16 2.961-35.91-6.742-57.906-12.605-67.648-26.812 13.988-50.289 33.668-64.184 46.488zm0 0"/><path d="M280.828 314.547c0 85.344-71.117 153.148-122.359 202.641-8.574 8.375-37.605 9.742-37.605 9.742 7.207-7.406 15.391-15.199 24.16-23.578 48.711-47.152 116.32-111.645 116.32-188.805 0-91.379-36.824-127.426-65.855-156.262-12.859-13.055-23.773-25.527-30.395-40.723l6.039-2.535 20.066 8.77c4.68 6.82 10.914 13.445 18.121 20.652 29.813 29.813 71.508 70.73 71.508 170.098zm0 0"/><path d="M765.699 339.762l-15.102 2.066c-170.684 18.898-346.82 68-447.555 108.332-36.437 14.613-74.238 32.344-108.723 52.219-.195.195-.391.195-.781.391-20.262 11.688-69.559 35.848-109.504 57.086 58.453-62.152 167.957-110.086 211.602-127.621 98.785-39.555 268.496-87.289 435.477-107.75-19.68-22.992-67.805-71.703-162.5-107.941-55.336-21.434-139.508-33.516-213.742-44.23-118.078-16.953-185.297-28.254-191.727-60.402-1.363-6.43-.391-12.859 2.531-19.094 6.43 10.523 15.59 17.926 21.629 22.211 2.922 1.949 5.066 3.117 5.844 3.508l.195.195c27.668 14.613 102.293 25.328 164.449 34.293 75.211 10.91 160.355 23.188 217.836 45.203 133.855 51.633 180.035 125.48 181.984 128.598 1.754 2.922 8.086 12.938 8.086 12.938zm0 0"/></g></svg>